<svg xmlns="http://www.w3.org/2000/svg" width="119" height="118" viewBox="0 0 119 118">
    <g fill="#A9884E" fill-rule="evenodd">
        <path d="M117.421 52.499H64.578V24.615h49.39a3.455 3.455 0 0 1 3.453 3.45V52.5zm-3.696 56.14a4.948 4.948 0 0 1-4.947 4.943h-44.2v-59.75h49.147v54.807zm-51.204 7.366c-.223.227-.49.33-.833.33h-6.317c-1.56 0-1.626-2.636-1.626-2.653V24.465c1.13.047 2.093.064 2.836.064 1.117 0 1.747-.034 1.86-.04.114.006.744.04 1.867.04.767 0 1.76-.017 2.937-.067v89.223c.003.41-.124 1.717-.724 2.32zm-57.46-7.366V53.832h47.35v59.75H10.005a4.948 4.948 0 0 1-4.944-4.943zm-3.696-56.14V28.065a3.45 3.45 0 0 1 3.45-3.45H52.41V52.5H1.365zm24.14-44.66c.183-3.597 3.146-5.877 8.34-6.42.51-.057 1.003-.08 1.493-.08 12.807 0 20.427 17.433 22.113 21.736-.936.027-1.813.057-2.573.084-3.527-.097-9.473-.5-16.863-2.04-7.464-1.554-12.76-8.294-12.51-13.28zm56.043-6.5c.487 0 .987.023 1.493.08 5.197.543 8.157 2.823 8.34 6.42.25 4.986-5.046 11.726-12.51 13.283a98.915 98.915 0 0 1-13.75 1.887c-1.306-.06-3.48-.037-5.666.013 1.726-4.383 9.33-21.683 22.093-21.683zm32.42 21.94H74.465c1.493-.24 3.036-.514 4.68-.857 8.103-1.687 13.846-9.127 13.566-14.65-.213-4.27-3.69-7.07-9.533-7.683-.57-.057-1.13-.087-1.683-.087-13.22 0-20.904 16.557-23.054 21.94-2.15-5.383-9.83-21.94-23.05-21.94-.553 0-1.113.03-1.683.087-5.843.613-9.32 3.413-9.533 7.683-.28 5.523 5.466 12.963 13.566 14.65 1.644.343 3.187.617 4.68.857H4.815a4.796 4.796 0 0 0-4.787 4.786v25.1c0 .37.3.667.667.667h3.033v54.807a6.284 6.284 0 0 0 6.277 6.28h42.56c.3 1.303 1.093 2.753 2.806 2.753h6.317c.69 0 1.307-.25 1.777-.727.57-.573.843-1.363.98-2.026h44.333a6.286 6.286 0 0 0 6.28-6.28V53.832h3.03c.37 0 .667-.297.667-.667v-25.1a4.793 4.793 0 0 0-4.787-4.786z"/>
        <path d="M91.163 64.26l13.884 23.54-1.447 7.596-12.44 8.954-12.223-8.954-1.447-7.6L91.163 64.26zM77.677 95.903a.634.634 0 0 0 .26.413l12.63 9.25c.116.087.256.13.393.13.077 0 .13-.076.2-.103.073.027.123.103.2.103a.68.68 0 0 0 .39-.126l12.847-9.25a.664.664 0 0 0 .263-.417l1.543-8.103a.646.646 0 0 0-.083-.464L91.933 62.943c-.163-.277-.483-.35-.77-.253-.296-.1-.62-.02-.78.256L76.213 87.34a.673.673 0 0 0-.076.46l1.54 8.103z"/>
        <path d="M90.94 77.726l6.91 10.53-.624 3.553-5.857 3.647-6.06-3.653-.63-3.567 6.26-10.51zm-6.577 15.06l6.67 4.023a.678.678 0 0 0 .343.097c.12 0 .243-.033.353-.1l6.454-4.023a.67.67 0 0 0 .306-.45l.724-4.104a.666.666 0 0 0-.104-.483l-7.643-11.64c-.027-.043-.083-.047-.12-.083-.037-.037-.043-.097-.093-.127-.037-.02-.08-.003-.117-.017a.599.599 0 0 0-.243-.033.562.562 0 0 0-.234.047c-.036.013-.08-.004-.113.02-.043.03-.047.086-.083.123-.037.037-.097.043-.124.093l-6.933 11.64c-.08.137-.11.3-.083.46l.726 4.104a.68.68 0 0 0 .314.453z"/>
        <path d="M91.212 86.356l1.087 1.657-.077.426-.933.584-.98-.59-.074-.437.977-1.64zm-1.85 3.06l1.587.957a.666.666 0 0 0 .696-.004l1.534-.956a.662.662 0 0 0 .306-.45l.174-.977a.655.655 0 0 0-.1-.48l-1.817-2.77c-.03-.047-.087-.05-.123-.083-.037-.04-.044-.097-.094-.127-.036-.02-.076-.003-.113-.017-.083-.033-.153-.036-.24-.033-.09 0-.16.01-.243.047-.034.013-.077-.004-.11.02-.044.03-.047.086-.084.123-.036.037-.096.043-.123.093l-1.65 2.77a.68.68 0 0 0-.087.457l.174.977c.036.19.15.356.313.453z"/>
    </g>
</svg>
