<svg xmlns="http://www.w3.org/2000/svg" width="130" height="126" viewBox="0 0 130 126">
    <g fill="#A9884E" fill-rule="evenodd">
        <path d="M127.761 123.591c-.256.297-.786.51-1.263.51h-18.12v-5.333c0-.49-.303-3.194-1.747-4.28-.993-.754-2.116-1.467-3.203-2.157-1.763-1.12-3.433-2.177-4.14-3.14-.85-1.163-1.483-3.823-1.483-5.423V86.79c10.056 5.247 21.136 11.8 22.953 13.397 2.7 2.37 6.033 13.686 7.21 22.223.077.553.01.93-.207 1.18zm-20.72.51H22.268v-5.333c0-.554.363-2.58 1.207-3.22.95-.717 2.046-1.414 3.11-2.087 1.88-1.19 3.653-2.313 4.506-3.483 1.047-1.427 1.747-4.364 1.747-6.21V86.89a.653.653 0 0 0-.37-.593 211.09 211.09 0 0 1 7.457-3.217v22.247c0 1.97 2.193 3.66 3.986 3.66h41.87c2.477 0 3.774-2.857 3.774-4.387v-21.9c2.116.977 4.476 2.143 6.926 3.403a.518.518 0 0 0-.013.124v17.54c0 1.846.7 4.783 1.747 6.21.856 1.17 2.626 2.293 4.496 3.48 1.067.673 2.17 1.373 3.117 2.09.85.64 1.213 2.666 1.213 3.22v5.333zm-86.11-5.333v5.333H2.825a1.495 1.495 0 0 1-1.463-1.777c1.526-7.816 4.893-19.866 7.28-22.193 2.396-2.7 11.203-8.037 22.886-13.407a.56.56 0 0 0-.023.167v16.877c0 1.6-.634 4.26-1.487 5.423-.707.967-2.377 2.023-4.143 3.143-1.09.69-2.21 1.4-3.204 2.154-1.436 1.09-1.74 3.79-1.74 4.28zm21.444-36.674c2.006-.796 3.4-2.286 4.03-4.316a9.015 9.015 0 0 0 .373-2.38c4.763 6.693 10.94 10.23 17.88 10.23 7.853 0 14.047-4.677 18.423-10.097.26 2.347 1.67 5.07 4.3 6.2.304.13.614.267.93.41-.06.1-.09.213-.09.337V104.6c0 .883-.853 3.053-2.44 3.053h-41.87c-1.106 0-2.65-1.173-2.65-2.326V82.6c0-.02 0-.043-.003-.06.37-.15.74-.297 1.117-.447zm-.557-20.866c-.043-.214-.213-.694-.69-2.004-.57-1.56-1.947-5.333-2.247-6.91 1.774.707 3.547 1.207 5.96.037 7.517-3.633 32.68-3.63 39.597.003 2.327 1.227 4.593 1.34 6.733.337-.173 1.067-.65 3.27-1.806 7.787l-.177.706c-1.43 5.927-10.24 23.11-24.53 23.11-15.267 0-21.9-18.193-22.84-23.066zm-8.74-19.99c8.66-2.557 19.89-4.027 30.96-4.027 9.71 0 23.873 2.133 32.343 4.243-1.283 8.537-4.693 9.474-4.713 9.48-.033.007-.05.044-.08.054-.05.016-.107.013-.147.036-2.033 1.29-4.12 1.34-6.386.15-7.314-3.843-32.857-3.86-40.794-.02-2.16 1.037-3.643.434-5.556-.346-.06-.027-.117-.01-.177-.024-.023-.003-.037-.026-.06-.03-.037 0-3.443-.306-5.39-9.516zm1.947-16.63c.146-1.864 2.03-18.187 22.76-18.187.353 0 .646-.28.666-.637.06-1.253 1.534-3.173 3.244-3.173h5.913c1.697 0 3.01 1.877 3.067 3.14.016.36.31.64.666.64 20.5 0 22.7 16.283 22.884 18.163l2.116 15.507c-8.593-2.093-22.643-4.183-32.303-4.183-11.057 0-22.297 1.443-31.033 3.976l2.02-15.246zm86.613 74.58c-2.553-2.24-22.863-14-33.73-18.68-2.947-1.27-3.917-5.067-3.397-6.86 3.287-4.6 5.307-9.4 5.97-12.154l.177-.683c1.417-5.537 1.883-7.81 1.93-8.827 1.3-.666 4.16-3.006 5.21-10.95.003-.036-.027-.066-.03-.103 0-.027.033-.047.03-.073l-2.247-16.46c-.09-.904-.706-5.66-4.03-10.287-2.92-4.06-8.683-8.887-19.603-9.05-.397-1.723-2.033-3.783-4.31-3.783h-5.913c-2.174 0-4.054 1.956-4.487 3.81-11.29.166-17.047 5.203-19.9 9.436-3.05 4.534-3.547 9.11-3.613 9.964L31.64 40.004a3.02 3.02 0 0 0-.03.387l.014.387c0 .02.023.03.026.05 0 .02-.016.04-.013.06 1.607 8.226 4.403 10.413 5.88 10.993.027 1.04.643 3.107 2.357 7.8.293.807.596 1.637.633 1.803.393 2.034 1.82 6.66 4.603 11.347.19.427.687 2.717-.073 4.83-.543 1.507-1.607 2.58-3.153 3.197-15.214 6.01-30.577 14.26-34.207 18.353-2.95 2.873-6.41 16.643-7.627 22.86-.16.83.057 1.68.59 2.333a2.82 2.82 0 0 0 2.184 1.034h123.673c.867 0 1.757-.384 2.273-.974.477-.553.65-1.286.52-2.236-1.24-8.97-4.61-20.37-7.653-23.04z"/>
        <path d="M57.81 21.735l6.803-11.706 6.907 11.71-.707 3.723-6.2 4.463-6.093-4.463-.71-3.727zm6.697 9.607c.04 0 .063-.047.103-.053.04.006.063.053.103.053a.68.68 0 0 0 .39-.127l6.707-4.826c.137-.1.233-.25.263-.417l.807-4.233a.682.682 0 0 0-.083-.464L65.287 8.55c-.144-.247-.417-.317-.68-.27-.264-.044-.537.026-.677.273l-7.397 12.727a.673.673 0 0 0-.076.46l.803 4.233c.03.163.123.313.26.413l6.593 4.827c.117.087.257.13.394.13z"/>
        <path d="M62.078 21.85l2.456-4.13 2.72 4.146-.23 1.303-2.316 1.444-2.4-1.45-.23-1.314zm2.636 4.213a.64.64 0 0 0 .35-.104l2.917-1.82a.652.652 0 0 0 .307-.45l.326-1.853a.65.65 0 0 0-.1-.477l-3.45-5.263c-.03-.043-.086-.047-.123-.08-.037-.04-.043-.097-.093-.127-.037-.023-.077-.003-.117-.016a.518.518 0 0 0-.237-.034c-.09 0-.16.007-.243.047-.037.013-.077-.003-.11.02-.043.03-.047.083-.083.12-.037.04-.097.047-.124.093l-3.13 5.26c-.08.137-.11.3-.083.457l.323 1.853c.037.19.147.357.314.454l3.01 1.82c.11.066.23.1.346.1z"/>
    </g>
</svg>
