<svg xmlns="http://www.w3.org/2000/svg" width="122" height="122" viewBox="0 0 122 122">
    <g fill="#A9884E" fill-rule="evenodd">
        <path d="M120.626 114.422a6.14 6.14 0 0 1-6.137 6.136H8.002a6.14 6.14 0 0 1-6.133-6.136v-82.29a6.14 6.14 0 0 1 6.133-6.137H114.49a6.14 6.14 0 0 1 6.137 6.137v82.29zM83.472 24.658H39.02v-4.42c0-4.563 3.713-8.276 8.277-8.276h27.9c4.563 0 8.276 3.713 8.276 8.276v4.42zm-54.453-4.42c0-10.076 8.2-18.276 18.277-18.276h27.9c10.08 0 18.276 8.2 18.276 18.276v4.42H84.81v-4.42c0-5.3-4.313-9.613-9.613-9.613h-27.9c-5.3 0-9.614 4.313-9.614 9.613v4.42H29.02v-4.42zm85.47 4.42h-19.68v-4.42c0-10.813-8.8-19.613-19.613-19.613h-27.9c-10.814 0-19.614 8.8-19.614 19.613v4.42H8.002c-4.116 0-7.466 3.354-7.466 7.474v82.29c0 4.116 3.35 7.47 7.466 7.47H114.49c4.12 0 7.47-3.354 7.47-7.47v-82.29c0-4.12-3.35-7.474-7.47-7.474z"/>
        <path d="M67.286 106.788a.668.668 0 0 0-.03.66c.247.614.077 1.304-.42 1.694-1.287.043-9.82.013-11.2-.014-.473-.38-.643-1.073-.397-1.686a.678.678 0 0 0-.03-.65 1.497 1.497 0 0 1-.106-1.347.68.68 0 0 0-.054-.6 1.505 1.505 0 0 1-.1-1.373h3.284c.006 0 .01.006.016.006.02 0 .044 0 .064-.003l.003-.003h9.227c.19.456.16.973-.094 1.38a.68.68 0 0 0-.053.6c.177.443.133.943-.11 1.336zm-5.887 4.224c-.516-.03-1-.227-1.45-.547.95.01 1.924.02 2.867.023-.443.307-.917.494-1.417.524zm-2.543-8.877l-1.15-12.133c1.647.71 4.26 1.356 7.043.133l-1.45 12h-4.443zm-9.567-13.427c0-6.283 5.364-11.393 11.96-11.393 6.594 0 11.957 5.11 11.957 11.393 0 5.164-3.77 11.377-5.553 13.427h-3.01l1.583-13.11a.669.669 0 0 0-1.02-.643c-3.23 2.053-6.363.826-7.943-.09a.664.664 0 0 0-.697.016.676.676 0 0 0-.303.624l1.253 13.203h-2.623c-1.79-2.05-5.604-8.947-5.604-13.427zm25.254 0c0-7.016-5.964-12.726-13.294-12.726s-13.296 5.71-13.296 12.726c0 4.737 3.8 11.734 5.8 14.17-.007.024-.02.047-.03.07a2.87 2.87 0 0 0 .036 2.31 2.886 2.886 0 0 0 .154 1.937c-.357 1.2.11 2.517 1.173 3.173.02.01 1.11.04 2.617.064.866 1.273 2.113 1.98 3.54 1.98.05 0 .1-.017.15-.017.053 0 .1.017.153.017 1.403 0 2.623-.694 3.483-1.93 1.324-.014 2.277-.05 2.387-.12 1.06-.65 1.527-1.97 1.163-3.17a2.84 2.84 0 0 0 .16-1.927 2.87 2.87 0 0 0 .027-2.327c.007-.03.03-.05.033-.08 1.804-2.196 5.744-8.51 5.744-14.15zM31.192 106.788a.668.668 0 0 0-.03.66c.25.617.077 1.31-.416 1.694-1.287.043-9.82.013-11.204-.014-.483-.386-.646-1.093-.383-1.716a.676.676 0 0 0-.043-.62 1.497 1.497 0 0 1-.107-1.347.672.672 0 0 0-.053-.597 1.52 1.52 0 0 1-.097-1.376h3.28c.007 0 .01.006.017.006.02 0 .043 0 .063-.003l.003-.003h9.227c.193.456.16.97-.093 1.38a.68.68 0 0 0-.054.6c.177.443.134.943-.11 1.336zm-5.89 4.224c-.51-.027-.993-.227-1.443-.544.947.01 1.92.02 2.857.024-.44.303-.914.49-1.414.52zm-2.54-8.877l-1.146-12.133c1.64.71 4.256 1.36 7.04.133l-1.447 12h-4.447zm-9.566-13.427c0-6.283 5.363-11.393 11.96-11.393 6.593 0 11.956 5.11 11.956 11.393 0 5.16-3.766 11.374-5.55 13.427h-3.01l1.58-13.11a.669.669 0 0 0-1.02-.643c-3.233 2.056-6.363.823-7.94-.09a.67.67 0 1 0-1 .64l1.25 13.203H18.8c-1.79-2.05-5.603-8.947-5.603-13.427zm25.253 0c0-7.016-5.963-12.726-13.293-12.726-7.33 0-13.297 5.71-13.297 12.726 0 4.737 3.8 11.737 5.8 14.17l-.027.07a2.871 2.871 0 0 0 .034 2.31c-.174.65-.12 1.337.156 1.94-.356 1.197.107 2.514 1.17 3.17.02.01 1.114.04 2.624.067.86 1.27 2.106 1.977 3.533 1.977.05 0 .1-.017.15-.017.053 0 .1.017.153.017 1.404 0 2.624-.694 3.484-1.927 1.323-.013 2.273-.05 2.39-.123 1.056-.65 1.523-1.97 1.16-3.17a2.84 2.84 0 0 0 .16-1.927c.33-.717.346-1.553.03-2.32.006-.033.03-.053.033-.087 1.803-2.2 5.74-8.516 5.74-14.15zM103.376 106.791a.648.648 0 0 0-.1.35c0 .107.027.21.07.3.25.617.077 1.314-.416 1.7-1.29.044-9.824.014-11.2-.013-.484-.383-.65-1.093-.387-1.713a.678.678 0 0 0-.043-.623 1.497 1.497 0 0 1-.107-1.347.672.672 0 0 0-.053-.597 1.52 1.52 0 0 1-.097-1.377h3.283c.007 0 .01.007.017.007.02 0 .043 0 .063-.003l.004-.004h9.226c.19.457.16.974-.093 1.38-.11.18-.13.4-.057.597.177.443.137.95-.11 1.343zm-5.74 4.287c-.603 0-1.126-.237-1.603-.59.443.003.897.003 1.35.003.653 0 1.303 0 1.923-.006-.486.376-1.043.593-1.67.593zm-2.686-8.94L93.8 90.001c1.643.71 4.26 1.36 7.04.134l-1.447 12.003H94.95zm-9.567-13.43c0-6.283 5.363-11.393 11.957-11.393 6.593 0 11.956 5.11 11.956 11.393 0 5.167-3.766 11.377-5.55 13.43h-3.01l1.58-13.113a.669.669 0 0 0-1.02-.644c-3.233 2.057-6.363.824-7.94-.09a.67.67 0 1 0-1 .64l1.254 13.207h-2.627c-1.79-2.053-5.6-8.953-5.6-13.43zm25.25 0c0-7.017-5.963-12.727-13.293-12.727-7.33 0-13.294 5.71-13.294 12.727 0 4.733 3.8 11.737 5.797 14.17l-.027.07a2.871 2.871 0 0 0 .034 2.31c-.174.65-.12 1.337.156 1.94-.36 1.197.107 2.513 1.157 3.157.093.056 1.323.096 2.973.12.86 1.243 2.094 1.94 3.5 1.94 1.407 0 2.637-.7 3.5-1.95 1.337-.02 2.297-.057 2.374-.104 1.056-.65 1.523-1.97 1.163-3.17.273-.596.33-1.283.16-1.923.333-.723.35-1.57.027-2.33.006-.03.03-.05.033-.08 1.803-2.197 5.74-8.51 5.74-14.15zM67.654 61.114H64.64l1.584-13.116a.666.666 0 1 0-1.017-.643c-3.36 2.133-6.673.646-7.943-.087a.658.658 0 0 0-.694.016.657.657 0 0 0-.306.62l1.25 13.21H54.89c-1.786-2.05-5.603-8.95-5.603-13.426 0-6.284 5.367-11.394 11.963-11.394 6.594 0 11.957 5.11 11.957 11.394 0 5.156-3.77 11.37-5.553 13.426zm-9.947-12.136c1.637.71 4.257 1.363 7.043.13L63.3 61.114h-4.443l-1.15-12.136zm9.58 16.79a.667.667 0 0 0-.03.66c.247.61.073 1.3-.42 1.693-1.29.04-9.82.01-11.2-.013-.477-.384-.647-1.077-.4-1.687a.686.686 0 0 0 .073-.3.699.699 0 0 0-.1-.353 1.496 1.496 0 0 1-.11-1.347.67.67 0 0 0-.05-.6 1.516 1.516 0 0 1-.106-1.363c0-.004.003-.007.003-.01h3.287c.006 0 .01.006.016.006.02 0 .04 0 .06-.003.004 0 .004-.003.007-.003h9.223c.194.46.16.973-.093 1.38a.67.67 0 0 0-.05.6c.177.446.133.943-.11 1.34zm-5.887 4.22c-.516-.027-1-.227-1.453-.544.95.01 1.927.017 2.867.02-.44.307-.914.494-1.414.524zm-.15-35.03c-7.33 0-13.296 5.71-13.296 12.73 0 4.736 3.796 11.73 5.8 14.17-.01.02-.024.043-.034.066a2.892 2.892 0 0 0 .04 2.314 2.855 2.855 0 0 0 .154 1.933c-.357 1.2.106 2.517 1.17 3.177.02.01 1.113.036 2.623.063.867 1.273 2.113 1.98 3.533 1.98.054 0 .1-.017.154-.02.053.003.1.02.153.02 1.403 0 2.623-.697 3.483-1.93 1.324-.013 2.274-.05 2.387-.12 1.06-.653 1.527-1.97 1.16-3.17a2.828 2.828 0 0 0 .16-1.93 2.856 2.856 0 0 0 .03-2.327c.007-.03.03-.046.033-.076 1.807-2.2 5.74-8.524 5.74-14.15 0-7.02-5.963-12.73-13.29-12.73zM31.565 61.114h-3.013l1.58-13.116a.669.669 0 0 0-1.02-.644c-3.36 2.134-6.67.647-7.94-.086a.67.67 0 1 0-1 .637l1.25 13.21h-2.623c-1.79-2.05-5.604-8.95-5.604-13.427 0-6.284 5.364-11.394 11.964-11.394 6.59 0 11.953 5.11 11.953 11.394 0 5.15-3.763 11.363-5.547 13.426zm-9.95-12.136c1.64.713 4.26 1.356 7.04.13L27.21 61.114h-4.447l-1.147-12.136zm9.577 16.79a.667.667 0 0 0-.03.66c.25.613.077 1.306-.417 1.693-1.283.04-9.82.01-11.203-.013-.483-.39-.647-1.094-.383-1.714a.717.717 0 0 0 .056-.273.667.667 0 0 0-.1-.353 1.496 1.496 0 0 1-.106-1.347.685.685 0 0 0-.05-.597 1.51 1.51 0 0 1-.1-1.376h3.28c.006 0 .01.006.016.006.02 0 .044 0 .064-.003 0 0 .003-.003.006-.003h9.227c.19.456.157.973-.097 1.38a.68.68 0 0 0-.053.6c.177.446.133.943-.11 1.34zm-5.89 4.22c-.51-.027-.993-.224-1.443-.544.946.014 1.92.02 2.86.024-.444.306-.917.49-1.417.52zm-.143-35.03c-7.334 0-13.3 5.71-13.3 12.73 0 4.736 3.8 11.733 5.8 14.17l-.027.066c-.313.75-.297 1.59.033 2.314a2.867 2.867 0 0 0 .157 1.936c-.36 1.2.107 2.514 1.17 3.174.02.01 1.113.036 2.623.063.864 1.273 2.107 1.98 3.534 1.98.05 0 .1-.017.15-.02.053.003.103.02.153.02 1.403 0 2.623-.697 3.483-1.927 1.324-.016 2.274-.05 2.39-.123 1.057-.653 1.524-1.97 1.16-3.17a2.847 2.847 0 0 0 .16-1.93c.33-.713.347-1.553.03-2.32.007-.03.03-.053.034-.083 1.806-2.207 5.74-8.53 5.74-14.15 0-7.02-5.964-12.73-13.29-12.73zM103.748 61.114h-3.014l1.58-13.116a.66.66 0 0 0-.303-.644.672.672 0 0 0-.713 0c-3.36 2.134-6.67.647-7.94-.086a.658.658 0 0 0-.694.016.657.657 0 0 0-.306.62l1.25 13.21H90.98c-1.787-2.053-5.6-8.953-5.6-13.426 0-6.284 5.367-11.394 11.96-11.394 6.593 0 11.957 5.11 11.957 11.394 0 5.156-3.767 11.37-5.55 13.426zM93.8 48.978c1.64.713 4.257 1.356 7.04.13l-1.447 12.006h-4.443l-1.15-12.136zm9.577 16.79a.67.67 0 0 0-.104.353c0 .103.027.207.074.3.25.613.073 1.31-.417 1.7-1.293.04-9.823.01-11.2-.013-.487-.387-.653-1.094-.39-1.714a.663.663 0 0 0-.04-.626 1.496 1.496 0 0 1-.11-1.347.673.673 0 0 0-.047-.597 1.52 1.52 0 0 1-.103-1.376h3.287c.006 0 .01.006.016.006.02 0 .04 0 .06-.003.004 0 .004-.003.007-.003h9.223c.194.46.16.973-.093 1.38a.674.674 0 0 0-.053.596 1.5 1.5 0 0 1-.11 1.344zm-5.74 4.29c-.604 0-1.127-.24-1.604-.59.444 0 .894.003 1.35.003.654 0 1.3-.003 1.924-.007-.49.377-1.047.594-1.67.594zm-.297-35.1c-7.33 0-13.293 5.71-13.293 12.73 0 4.733 3.796 11.733 5.796 14.17l-.03.066c-.31.75-.296 1.59.037 2.314a2.847 2.847 0 0 0 .157 1.936c-.36 1.2.103 2.514 1.156 3.16.09.057 1.32.097 2.974.117.863 1.247 2.093 1.94 3.5 1.94 1.406 0 2.636-.7 3.5-1.947 1.336-.023 2.296-.056 2.373-.103 1.057-.653 1.523-1.97 1.16-3.17a2.859 2.859 0 0 0 .16-1.927c.337-.72.353-1.57.03-2.33.007-.03.03-.046.033-.076 1.804-2.2 5.737-8.52 5.737-14.15 0-7.02-5.963-12.73-13.29-12.73z"/>
    </g>
</svg>
