<svg xmlns="http://www.w3.org/2000/svg" xmlns:xlink="http://www.w3.org/1999/xlink" width="130" height="128" viewBox="0 0 130 128">
    <defs>
        <path id="a" d="M125.614.73v71.505H.724V.73h124.89z"/>
        <path id="c" d="M.66.99h101.934v37.114H.66z"/>
    </defs>
    <g fill="none" fill-rule="evenodd">
        <g transform="translate(3.568 28.119)">
            <mask id="b" fill="#fff">
                <use xlink:href="#a"/>
            </mask>
            <path fill="#A9884E" d="M108.99 67.4c.264.247.446.525.55.835.189.51.257 1.031.246 1.538.503-.603.756-.753 1.042-.767l.103-.043c.282-.11.546-.217.714-.37a7.15 7.15 0 0 0 .545-.597l.032-.035c.097-.425.318-.757.504-1.031.082-.122.164-.24.217-.35.032-1.08.11-2.165.186-3.25.153-2.148.31-4.37.078-6.525-.128-.896-.275-1.623-.81-1.923a.703.703 0 0 1-.364-.55.588.588 0 0 1-.157-.203c-.567-1.07-.874-2.219-1.155-3.339a.939.939 0 0 1-.532-.435c-.071-.064-.196-.264-.318-.46-.206-.336-.346-.546-.517-.586-.389-.085-.874.008-1.384.097-.264.05-.528.093-.792.121-.878.607-3.254 1.48-3.924 1.416a.708.708 0 0 1-.6-.885c.168-.66.346-1.312.532-1.965.132-.485.267-.967.396-1.452.021-.068-.004-.21-.022-.318a3.38 3.38 0 0 1-.046-.381c-.1-.935.071-1.952.528-3.072 0-.289-.028-.581-.05-.87-.053-.625-.11-1.27.018-1.948.057-.275.185-.486.307-.653.41-.546 1.644-1.552 3.225-2.811.5-.4.927-.743 1.149-.928.303-.567 1.787-1.68 2.79-2.108.042-.165.103-.336.17-.493-.02-.021-.039-.046-.06-.071-.642-.888-.731-1.912-.81-2.815-.064-.738-.125-1.434-.464-1.987a.712.712 0 0 1 .1-.878c.236-.232.421-.55.593-.999.067-.256.246-.453.524-.57a.72.72 0 0 1 .36-.628.716.716 0 0 1 .293-.09c.135-.346.242-.998.196-1.287a.713.713 0 0 1-.171-.685c.132-.475.613-1.06 1.163-1.17.257-.068.703.096.867.3.289.491.642.823 1.016 1.173.264.25.525.496.764.77.132.157.189.368.16.571-.064.418-.128.839-.317 1.238.068.77.317 1.524.578 2.312.153.47.307.942.428 1.42a5.032 5.032 0 0 1-.018 2.633c.146.096.278.214.396.342a.703.703 0 0 1 .168.685c-.05.186-.107.407-.05.528.4.903 1.127 1.591 1.898 2.323l.267.253c.26.096.5.26.71.5.061.067.179.131.307.2.196.106.443.238.657.467.463.438 1.11.73 1.794 1.041a20.094 20.094 0 0 1 1.131.543c-.004-.065-.004-.129-.004-.193-.01-.221-.014-.346-.028-.382-.3-.389-2.337-4.534-2.076-5.508.05-.332.231-.607.428-.838-.075-.072-.157-.157-.246-.243-.871-.856-1.513-1.523-1.702-2.126l-.204-.25c-.342-.417-.567-.706-.702-.938l-.143-.057c-.086.021-.24-.008-.375-.05-.381-.122-1.384-.82-1.798-1.492-.424-.25-.731-.603-1.006-.92-.182-.207-.27-.56-.157-.81.122-.264.236-.553.275-.835a.715.715 0 0 1 .592-.606c.06-.56.21-1.349.443-2.487.092-.435.167-.806.2-1.024a.716.716 0 0 1 .46-.563c.174-.19.45-.707.446-.9-.061-.395-.625-1.833-.828-2.097-.24-.16-.31-.403-.253-.685a.533.533 0 0 1 .174-.303c.086-.425.218-1.41.304-2.034.06-.46.12-.902.174-1.238a1.566 1.566 0 0 0-.37-.731c-.04-.04-.136-.129-.211-.129-.129-.007-.19 0-.25 0-.192.015-.474.025-.756-.074-.468.114-1.006.032-1.292-.35a.842.842 0 0 1-.092-.856c-.068-.318-.232-.646-.407-.985-.04-.082-.082-.164-.121-.246a1.044 1.044 0 0 1-.343-.607c-.043-.196-.107-.86.157-1.291.275-.657 1.174-1.206 1.284-1.27.26-.154.507-.264.739-.321.075-.221.171-.453.325-.685.092-.132.292-.328.51-.535a33.561 33.561 0 0 1-.675-.518l-.046-.032a.67.67 0 0 1-.314-.117c-.264-.193-.382-.528-.389-.889a.628.628 0 0 1-.132-.175.734.734 0 0 1-.307.018c-.196-.025-.438.043-.72.136l-.01.053c-.1.521-.204 1.096-.572 1.606-.121.342-.531.474-1.052.642-.51.16-1.277.403-1.773.653-.19.082-.478.303-.689.464-.178.135-.353.27-.538.356-.257.218-.507.443-.753.671-.51.467-1.035.949-1.652 1.345a2.47 2.47 0 0 1-.781.328c-.05.143-.107.293-.172.446-.128.332-.274.685-.306.85.042.256-.061.342-.268.502l-.185.147c-.225.174-.45.356-.703.52.028.29.028.653.028 1.106 0 .329-.003.824.032.956a.741.741 0 0 1-.082.543c-.41.681-3.296 2.815-4.645 3.021a1.403 1.403 0 0 1-.588-.028c-.425.107-.703.242-.885.435-.246.253-.4.61-.564.992-.15.353-.307.72-.55 1.07a.681.681 0 0 1-.138.146c-.382.307-.928.282-2.947.022-.403-.05-.931-.121-1.195-.14-.625.486-2.348 1.813-3.432 2.577.053.053.103.103.16.156.257.25.51.5.657.66a.713.713 0 0 1-.072 1.039 2.148 2.148 0 0 1-.535.296c-.035.014-.082.035-.121.053a.716.716 0 0 1-.606.539c-.011 0-.022.004-.033.004-.2.025-.563.107-.83.217l-.008.257a.719.719 0 0 1-.703.692h-.035c-.314 0-.6-.057-.853-.11-.029-.004-.057-.011-.082-.015a.854.854 0 0 1-.075.093c-.539.617-2.084.978-2.968.514l-.243-.122c-.064-.035-.132-.064-.193-.1-.642.618-1.027.514-1.17.496a.73.73 0 0 1-.41-.267c-.093-.032-.214-.071-.296-.1a1.474 1.474 0 0 1-.15-.05c-.118.068-.292.153-.375.104-.267-.011-.56.014-.841.032-.653.046-1.32.096-2.023-.09-.468-.057-.696-.417-.817-.713-.464.007-1.163.103-2.098.292-.032.008-.064.011-.09.018-.192.072-.434.06-.706.068-.035-.003-.074 0-.114 0a.952.952 0 0 1 .036.553.718.718 0 0 1-.557.532.751.751 0 0 1-.274.253c-.24.125-.496.218-.753.31-.332.118-.617.221-.82.396a.714.714 0 0 1-1.156-.735c.082-.285.178-.56.3-.827a.696.696 0 0 1 .356-.357c.025-.036.053-.075.086-.11.763-.85 1.402-1.82 2.104-2.905l.09-.153c.128-.207.26-.421.25-.56-.033-.378-.186-.781-.347-1.206l-.003-.014c-.885-.275-2.612-.874-3.307-1.463h-.004a2.493 2.493 0 0 0-.342-.207 6.939 6.939 0 0 1-.179.264c-.606.913-1.02 1.498-1.388 1.816a.569.569 0 0 1-.042.096c-.31.682-1.552 1.342-2.255 1.342a.717.717 0 0 1-.603-.332c-.785.546-2.051 1.438-2.772 1.944l-.667.468a.656.656 0 0 1-.06.132c-.457.706-2.124 1.106-2.99 1.273-.093.268-.336.489-.618.51-.446.486-1.555.981-4.192 1.927l-.132.05c-.114.481-.403.895-.863.963-.374.057-.899-.09-1.174-1.099a.685.685 0 0 1-.017-.317c.135-.757.578-1.32.97-1.82.071-.092.146-.182.218-.278a5.668 5.668 0 0 0-.478-.342c-.571.745-1.178 1.501-1.97 2.108-.135.11-.314.207-.474.146.096.303.139.664-.107 1.028-.072.17-.254 1.334-.329 1.83-.02.146-.042.278-.064.396l.15.171a.715.715 0 0 1-.01.938l-.211.243c-.228.264-.453.524-.717.756a.693.693 0 0 1-.724.14.714.714 0 0 1-.46-.579c-.125-.998-.636-2.019-1.613-3.207a4.827 4.827 0 0 0-.774-.777c.014.135.028.27.035.403a.705.705 0 0 1-.353.667c-.292.175-.96.246-1.441.153h-.01c-.276 0-.507-.153-.786-.339-.114-.075-.335-.22-.46-.278a.673.673 0 0 1-.51-.114c-.343-.232-.796-.364-1.391-.403h-.008a.944.944 0 0 1-.83-.528 1.045 1.045 0 0 1-.115-.421c-.57-.314-1.93-.778-2.312-.692a.746.746 0 0 1-.528-.136 2.469 2.469 0 0 1-.513-.014c-.41.225-1.12.424-2.405.745-.464.115-1.102.275-1.249.343a.682.682 0 0 1-.52.103.706.706 0 0 1-.443-.328c-.378-.207-3.85-1.07-4.598-1.149a.81.81 0 0 1-.347-.025c-.453-.153-1.305-1.127-1.487-1.548-.164-.646.285-2.597.91-3.04.1-.074.228-.16.36-.25.253-.17.478-.32.578-.499a.937.937 0 0 1 .817-.581c.424-.018 1.045.139 2.012 1.823.267.118 1.798.16 2.465.014a.656.656 0 0 1-.032-.189c-.007-.428.004-.856.014-1.288.022-.863.043-1.684-.1-2.472-.082-.232-.274-.542-.478-.867-.214-.335-.428-.682-.585-1.092a.6.6 0 0 1-.046-.207.768.768 0 0 1-.171-.107l-.39-.353c-.096-.082-.188-.171-.281-.253-.14.053-.282.1-.425.15-.506.167-.942.314-1.198.642l-.032-.022c-.814 1.32-4.142 4-5.42 4.984a3.759 3.759 0 0 1-.574 1.588.81.81 0 0 1-.136.157c-.478.407-1.077.453-1.516.492-1.002.047-3.82.682-5.686 1.103-.97.217-1.749.392-2.016.435-.171.018-.343.1-.521.246-.107.267-.325.589-.639 1.049-.228.332-.47.685-.62.963-.107 1.092-.61 3.87-.97 4.73-.204.475-.786.946-1.72 1.67-.246.193-.582.457-.81.653.04.14.071.282.093.414.107.66.174 3.254-.107 4.516.67 1.2.956 1.873 1.07 2.266.713.464.92 1.323 1.038 1.82a.656.656 0 0 1-.004.342c-.231.91-.952 1.395-1.534 1.784-.196.132-.396.264-.56.41-.763.746-1.284.514-1.552.314a.694.694 0 0 1-.253-.364c-.007-.036-.018-.068-.025-.096l-.617-.225c-.842.364-2.615.91-3.668 1.074-.035.51.029 1.049.093 1.609l.043.37c.032.297.068.593.11.885.076.546.147 1.096.172 1.649 1.07 1.145 2.422 3.917 2.754 4.638l.007-.004c.032.043.2.125.3.175l.257.128c.324.146.681.41 1.06.8.178.185.245.449.174.691a1.717 1.717 0 0 1-.606.914c.064.378.203.756.35 1.152.117.318.231.639.324.981.171-.007.339-.014.506-.025l-.021-.282c-.05-.556-.103-1.184.054-1.823a.777.777 0 0 1 .074-.185c.197-.343.471-.578.718-.785.164-.14.31-.264.388-.385a2.828 2.828 0 0 0-.103-.307 3.001 3.001 0 0 1-.19-.625.675.675 0 0 1 .037-.356c.224-.625.824-.91 1.052-1.017.585-.264 1.955-.264 2.754-.029.1-.067.246-.164.353-.239.222-.15.428-.289.628-.396-.032-.37-.121-.988-.342-1.997-.147-.49-.196-.932-.24-1.36l-.06-.463a.718.718 0 0 1 .592-.807l.953-.157a.721.721 0 0 1 .335-.588c.814-.503 1.998-.21 2.565.157.015-.043.025-.093.04-.143a.712.712 0 0 1 .934-.492l.86.306.06.011c.357.06 4.638 1.548 5.038 2.69.178.517.057.992-.028 1.334-.008.025-.011.047-.018.068.606.2 1.962.696 2.618 1.238.321.128.832.457 1.98 1.234.168.115.357.247.539.368-.136-.674-.086-1.56.321-1.873a.713.713 0 0 1 .524-.143c.282-.078.935-.464 1.21-.695a.382.382 0 0 1 .032-.097.702.702 0 0 1-.06-.282c-.008-.645.488-.966.73-1.12.233-.221.728-.353.996-.178l1.605.999c.257-.054.54-.086.825-.057.52.032 1.056.107 1.59.185.818.118 1.585.225 2.373.171h.018c.842 0 2.586 1.724 2.929 2.437.043.09.075.178.096.257.246.09.689.26 1.185.453 3.417 1.341 3.806 1.538 3.892 1.976.478.767.913 1.602 1.323 2.555.425.98.832 2.122.828 3.321.546.14 1.11.418 1.48.62.568.208 3.076 1.892 4.014 2.994.535.132 1.281.482 1.802.935.157-.072.342-.143.553-.236.464-.185 1.552-.631 1.716-.899a.698.698 0 0 1 .41-.381l.396-.143c.696-.257 1.416-.517 2.208-.6.632-.11 2.12.571 2.137.579.54.253.917.677 1.217 1.127.774-.196 1.548-.136 2.265-.071 0-.104 0-.207-.003-.31-.04-.076-.086-.154-.129-.23-.22-.395-.56-.991-.27-1.704.135-.26.26-.443.384-.621.157-.225.293-.418.35-.61a.715.715 0 0 1 .913-.468c.404.14.832.218 1.256.307.874.171 1.78.353 2.59.928.514.292.66.852.757 1.223.042.16.092.346.146.4.157.15.435.228.735.3.86-.51 1.826-1 2.979-.835.774.114 1.362.524 1.883.892.41.289.796.56 1.21.642.678.153 1.359-.11 2.122-.435l.503-.21c.382-.158.771-.315 1.12-.532.497-.453 3.986-1.442 5.423-1.56.118-.131.232-.26.35-.388.203-.229.41-.45.6-.685a1.903 1.903 0 0 1-.011-.336c-.093-.867.06-1.873.478-3.064-.168-.196-.282-.321-.403-.343a.714.714 0 0 1-.578-.695c-.007-.782 1.926-2.762 2.597-3.168a.79.79 0 0 1 .214-.086c.028-.004 2.594-.524 3.414-.214.628.296 1.07.731 1.46 1.117l.213.207c.521.517 1.006 1.06 1.488 1.609.46.517.913 1.038 1.41 1.526.277-.035.566-.15.891-.281l.414-.16c.093-.03.2-.058.285-.037.303.018.564.115.767.19.129.05.254.092.343.107.339.06.624.267 1.605 1.063.143.117.282.228.41.328.218-.1.446-.19.7-.271.246-1.074.949-1.98 1.908-2.444.19-.09.41-.096.6-.007a.687.687 0 0 1 .392.45.615.615 0 0 0 .275.342.718.718 0 0 1 .339.631c-.06 1.734.35 3.436.802 5.013a.712.712 0 0 1-.117.624.708.708 0 0 1-.571.285h-.91c-.06.172-.143.332-.232.486m.353 4.834h-.577a.725.725 0 0 1-.575-.286.722.722 0 0 1-.114-.624c.332-1.142.371-1.94.118-2.608-.065-.2-.246-.367-.557-.546a.725.725 0 0 1-.35-.5.717.717 0 0 1 .161-.58c.285-.34.478-.622.482-.907a.715.715 0 0 1 .713-.7h.01l.543.004c-.335-1.287-.613-2.718-.613-4.174-.025-.028-.054-.053-.079-.082-.367.36-.614.867-.663 1.42a.723.723 0 0 1-.54.625c-.47.117-.863.27-1.19.474a.715.715 0 0 1-.778-.025c-.2-.14-.514-.392-.839-.653-.335-.271-.888-.72-1.045-.799-.057.068-.314-.071-.496-.143-.09-.028-.171-.06-.246-.082l-.2.079c-.503.196-1.092.446-1.745.385a.699.699 0 0 1-.45-.196c-.602-.575-1.155-1.195-1.704-1.82-.46-.517-.92-1.041-1.417-1.527l-.217-.217c-.34-.332-.657-.646-1.02-.814-.265-.057-1.685.118-2.416.264-.453.318-1.149 1.089-1.552 1.61.186.16.332.342.457.495l.171.2c.182.2.236.485.136.735-.446 1.156-.617 2.083-.532 2.929l.01.2c.022.214.061.606-.235.963-.228.278-.474.557-.731.835-.178.196-.353.396-.528.6a.704.704 0 0 1-.667.242c-.014-.004-.029-.004-.05-.004-.742 0-4.224.946-4.752 1.31-.51.328-.97.513-1.413.695l-.474.196c-.732.318-1.83.785-2.983.525-.692-.136-1.245-.525-1.737-.87-.446-.311-.831-.582-1.263-.646-.789-.082-1.541.339-2.287.792a.754.754 0 0 1-.546.089l-.185-.047c-.46-.11-1.031-.246-1.484-.685-.346-.335-.457-.756-.54-1.063-.038-.16-.092-.356-.145-.389-.614-.431-1.338-.574-2.098-.727-.278-.054-.553-.111-.824-.179-.079.129-.168.254-.246.368-.093.132-.186.264-.26.41 0 .004.117.214.217.396.093.164.185.332.25.5.025.06.039.12.046.189.043.435.018.877-.014 1.32-.011.189-.1.392-.243.517-.14.128-.271.278-.524.203l-.603-.053c-.839-.079-1.638-.157-2.305.146a.726.726 0 0 1-.913-.296c-.25-.439-.525-.881-.914-1.056-.31-.16-1.148-.435-1.366-.443-.617.061-1.216.286-1.859.518l-.174.064c-.418.542-1.263.92-2.298 1.345-.278.114-.66.271-.753.335-.142.221-.346.268-.592.271-.264-.017-.439-.235-.55-.467-.138-.271-1.098-.76-1.405-.792-.221-.05-.45-.118-.585-.325-.503-.767-3.132-2.565-3.625-2.743-.667-.367-1.334-.51-1.48-.574a.72.72 0 0 1-.657-.154.717.717 0 0 1-.214-.65c.175-1.12-.217-2.243-.667-3.296-.4-.924-.817-1.726-1.284-2.458-.496-.267-2.194-.934-3.147-1.309-1.69-.663-1.74-.692-1.89-.842a.714.714 0 0 1-.186-.65c-.246-.43-1.263-1.33-1.67-1.547-.838.039-1.705-.079-2.536-.197-.493-.067-.988-.142-1.488-.174a3.238 3.238 0 0 0-.7.089.71.71 0 0 1-.534-.097l-1.192-.738a.973.973 0 0 1-.246.606.583.583 0 0 1-.078.164c-.193.286-1.139 1.039-1.973 1.31-.007.196.007.417.042.506-.032-.053.097.04.193.107.086.061.171.118.257.186a.7.7 0 0 1 .264.51.713.713 0 0 1-.196.542c-.314.343-.735.81-1.456.728-.374-.11-.763-.367-1.801-1.074-.557-.374-1.492-1.01-1.71-1.095a.614.614 0 0 1-.385-.26c-.403-.264-1.83-.903-2.304-1.003a.702.702 0 0 1-.838-.535c-.111-.453-.008-.856.074-1.174.057-.22.1-.41.065-.52-.325-.347-3.183-1.57-3.875-1.738h-.003a.69.69 0 0 1-.24-.043l-.27-.096c-.097.257-.229.52-.414.763a.716.716 0 0 1-1.01.114 3.592 3.592 0 0 1-.321-.292 1.105 1.105 0 0 1-.232-.353c-.121-.082-.371-.157-.607-.186a.717.717 0 0 1-.595.717l-.964.16c.033.297.072.59.161.875.346 1.577.464 2.497.407 3.047a.714.714 0 0 1-.378.556.673.673 0 0 1-.329.086 6.412 6.412 0 0 0-.546.346c-.445.3-.713.474-.988.528a.687.687 0 0 1-.631-.19c-.157-.02-1.374-.1-1.688.04-.089.043-.153.075-.2.107l.033.082c.103.268.232.607.207 1.013a.771.771 0 0 1-.04.193c-.185.514-.556.831-.856 1.088-.139.114-.275.228-.357.335-.071.379-.035.803.004 1.249.032.353.06.71.05 1.06a.726.726 0 0 1-.592.681c-.475.078-.956.1-1.434.114l-.475.022c-.45-.022-.703-.26-.746-.632-.05-.424-.207-.853-.37-1.302-.233-.639-.475-1.292-.475-2.062 0-.26.146-.5.367-.62a1.093 1.093 0 0 0-.178-.097l-.235-.121c-.282-.136-.664-.318-.907-.732a.76.76 0 0 1-.075-.175c-.167-.442-2.115-3.824-2.572-4.388l-.035-.028a.713.713 0 0 1-.272-.543c-.007-.563-.085-1.123-.16-1.683a40.615 40.615 0 0 1-.121-.92l-.036-.361c-.1-.85-.2-1.73.014-2.64a.714.714 0 0 1 .942-.507c.678-.057 3.232-.849 3.607-1.06.192-.167.396-.174.65-.078l1.251.457a.702.702 0 0 1 .218.128c.132-.107.325-.242.52-.37.454-.308.76-.525.896-.807-.117-.442-.246-.724-.47-.806a.717.717 0 0 1-.479-.703c-.025-.182-.42-1.06-1.099-2.24a.721.721 0 0 1-.014-.682c.164-.66.264-3.642.047-4.302a.643.643 0 0 1-.179-.264.691.691 0 0 1 .022-.546c.17-.378.617-.735 1.452-1.388.431-.339 1.16-.906 1.284-1.117.278-.667.806-3.521.867-4.41a.723.723 0 0 1 .068-.253c.164-.342.485-.82.785-1.259.156-.232.385-.564.47-.72a.687.687 0 0 1 .207-.418c.464-.45.96-.71 1.474-.77.232-.033.97-.2 1.894-.41 2.63-.597 4.884-1.089 5.801-1.125.307-.025.567-.05.717-.12.182-.322.289-.686.307-1.053a.713.713 0 0 1 .524-.65c.618-.278 4.57-3.97 5.11-4.684a.613.613 0 0 1 .092-.164c.528-.664 1.241-.899 1.87-1.113.235-.075.47-.157.688-.26a.723.723 0 0 1 .742.074c.239.186.467.39.688.593l.111.096a4.41 4.41 0 0 1 .813-.036.724.724 0 0 1 .678.739c-.014.307-.035.617-.075.924a.757.757 0 0 1-.107.3l.022.032c.242.385.492.788.645 1.28.197 1.02.172 1.952.147 2.85-.007.354-.018.707-.015 1.064.286.567.157.935-.042 1.174-.154.239-.593.678-2.159.713-.692-.025-2.426-.025-2.886-.803-.257-.445-.464-.734-.617-.91-.25.286-.532.475-.767.632-.104.072-.207.14-.303.214-.115.168-.364 1.046-.396 1.41.132.189.435.513.61.667 1.091.124 3.874.752 5.105 1.362.26-.089.638-.185 1.22-.328.65-.16 1.848-.464 2.094-.628.186-.296.428-.292.76-.178.16.071.353.053.6-.036a.69.69 0 0 1 .645.093c.06.04.11.086.15.143 1.102.15 2.726.788 3.154 1.309a.884.884 0 0 1 .164.35c.567.075 1.041.224 1.448.456.428.025.846.296 1.192.525l.132.092a.57.57 0 0 1 .178.047 17.43 17.43 0 0 0-.36-1.845.704.704 0 0 1 .26-.738l.286-.225c.292-.228.842-.303 1.098-.021.443.481.575 1.066.603 1.573.646.375 1.124.903 1.449 1.295.36.442.792 1.01 1.156 1.677.146-.935.274-1.684.45-2.09a2.45 2.45 0 0 1-.126-.365.7.7 0 0 1 .09-.545c.132-.211.499-.796 1.184-.896.628-.528 1.142-1.195 1.68-1.898l.25-.328a.707.707 0 0 1 .924-.182c.603.353 1.234.756 1.745 1.316a.719.719 0 0 1 .1.824 6.133 6.133 0 0 1-.496.732c.963-.353 2.518-.942 2.993-1.28.018-.054.043-.115.071-.169a.715.715 0 0 1 .41-.317.707.707 0 0 1 .589-.467c.853-.097 2.04-.46 2.422-.696.043-.157.14-.3.282-.393l.878-.62c2.123-1.495 3.321-2.33 3.571-2.47a.72.72 0 0 1 .874.133c.004.003.1.121.207.3.16-.082.325-.19.428-.279.004-.1.025-.2.071-.292a.718.718 0 0 1 .443-.386c.257-.22.82-1.073 1.102-1.498.218-.321.414-.61.546-.785a.694.694 0 0 1 .785-.242c.464.153.863.35 1.213.603.06.046.118.1.157.157.57.317 2.643 1.134 2.972 1.205.292.008.47.186.57.464l.115.307c.174.47.378 1.006.435 1.591.043.61-.246 1.081-.457 1.424-.003.01-.1.17-.107.178-.15.239-.3.467-.45.696h.265a.693.693 0 0 1 .224-.04c1.078-.22 2.334-.42 3.09-.3a.725.725 0 0 1 .535.425c.032.082.06.171.09.264.006.025.006.043.003.05.5.097.974.06 1.47.025.207-.014.413-.028.617-.036.107-.07.232-.135.389-.185.264-.09.624-.01.845.185l.054.015c.135.046.303.1.467.175.086-.082.171-.175.236-.247a.746.746 0 0 1 .774-.228c.278.093.542.228.802.36l.236.118c.242.125.828.029 1.12-.1 0-.114.025-.225.079-.324a.706.706 0 0 1 .606-.4c.318-.007.61.04.878.093a.714.714 0 0 1 .242-.393c.257-.21.864-.478 1.41-.599.07-.103.156-.19.246-.264-.521-.507-.728-.717-.828-.874a.711.711 0 0 1 .367-1.06c.371-.207 3.732-2.725 4.028-2.996a.822.822 0 0 1 .243-.154c.278-.096.596-.068 1.883.1.528.064 1.442.19 1.877.193.093-.179.178-.375.264-.578.196-.46.417-.981.838-1.417.557-.588 1.331-.792 1.863-.895a.628.628 0 0 1 .453.064c.67-.089 2.836-1.559 3.478-2.197-.018-.236-.018-.532-.018-.917.004-.332.004-.878-.035-1.078a.708.708 0 0 1-.093-.488.704.704 0 0 1 .396-.528c.32-.15.617-.39.935-.635.057-.207.164-.486.331-.914.114-.285.225-.553.254-.681a.75.75 0 0 1 .588-.564c.225-.035.482-.089.657-.203.528-.34.984-.756 1.47-1.202.296-.275.599-.55.913-.807a.74.74 0 0 1 .246-.128c.06-.047.143-.107.232-.175.278-.21.624-.478.938-.62.575-.286 1.402-.55 1.952-.725.124-.036.228-.068.314-.096.192-.257.264-.628.338-1.046.033-.178.068-.356.108-.524a.729.729 0 0 1 .524-.528c.114-.029.228-.064.346-.1.225-.075.485-.16.774-.196.04-.09.079-.178.121-.26a.71.71 0 0 1 .639-.4h.121c.24 0 .46.118.593.314.128.185.224.378.303.57.185.019.36.111.478.265.189.228.214.553.06.81-.01.017-.02.042-.032.064l.16.121c.422.325.843.653 1.292.942a.715.715 0 0 1 .225.97c-.118.193-.332.396-.667.707-.16.15-.321.292-.389.381-.075.11-.135.31-.207.514l-.089.278a.699.699 0 0 1-.888.436c-.186.028-.892.549-1.013.774a.531.531 0 0 1-.083.21 1.229 1.229 0 0 0-.007.11.698.698 0 0 1 .15.218c.068.14.136.279.207.414.2.4.425.846.525 1.352h.017c.2 0 .4.061.532.182-.06-.078.207-.053.339-.053.064 0 .1.007.175.007.41 0 .852.214 1.22.617.464.503.763 1.299.706 1.848-.053.364-.114.796-.175 1.245-.146 1.099-.235 1.788-.339 2.226.468.796.9 2.202.942 2.501.125.75-.492 1.723-.813 2.073-.032.032-.086.09-.154.146-.039.214-.096.475-.153.76-.16.774-.492 2.387-.435 2.75a.766.766 0 0 1-.16.597.73.73 0 0 1-.54.27h-.028c-.018.058-.04.118-.06.176.17.178.328.324.502.4a.72.72 0 0 1 .39.445c.15.207.638.646.913.81.11-.018.253 0 .37.05l.632.267c.207.09.353.264.407.471.1.164.428.568.588.77.257.315.44.536.475.771.153.336.97 1.135 1.323 1.492.49.478.728.717.853.945a.71.71 0 0 1-.125.853l-.146.139c-.168.164-.346.332-.367.453.024.603 1.47 3.896 1.808 4.342.296.332.31.77.321 1.06l.011.192c0 .271.01.546.025.817.014.228.025.46.032.692a.714.714 0 0 1-.374.642.696.696 0 0 1-.743-.043c-.41-.278-.88-.595-1.377-.824-.242-.128-.478-.232-.71-.335-.763-.346-1.551-.703-2.211-1.334-.086-.09-.204-.15-.329-.218-.214-.114-.474-.257-.699-.51-.143-.025-.396-.19-.5-.29l-.392-.374c-.835-.795-1.702-1.616-2.208-2.757-.171-.35-.178-.714-.136-1.042a.826.826 0 0 0-.164-.064.739.739 0 0 1-.446-.382.726.726 0 0 1-.01-.585 3.594 3.594 0 0 0 .17-2.358c-.113-.453-.256-.892-.399-1.331-.3-.906-.61-1.848-.667-2.876a.737.737 0 0 1 .11-.413c.097-.157.15-.36.186-.589-.139-.143-.289-.282-.435-.417a13.81 13.81 0 0 1-.464-.453c-.007.513-.16 1.776-.774 2.315a.71.71 0 0 1-.539.745 1.109 1.109 0 0 1-.257.04c-.142.339-.3.624-.474.867.303.71.371 1.462.428 2.14.06.664.114 1.292.371 1.809.357.143.603.507.67.838.076.354-.028.689-.27.91-.054.118-.132.36-.14.453.036.218-.032.393-.178.553-.146.164-.357.221-.578.19-.307.085-1.673 1.04-2.065 1.451a.75.75 0 0 1-.154.26c-.16.179-.574.51-1.427 1.192-.988.785-2.636 2.109-2.96 2.544-.147.556-.104 1.074-.058 1.63.036.382.068.77.06 1.153a.68.68 0 0 1-.06.264c-.4.945-.557 1.773-.478 2.533.007.107.021.181.032.256.043.247.096.582-.01.942-.126.475-.261.963-.397 1.449l-.22.795c.72-.257 1.633-.645 1.958-.845a.71.71 0 0 1 .542-.296c.293-.018.589-.075.878-.125.585-.11 1.245-.232 1.948-.09.78.197 1.152.796 1.423 1.231.06.1.125.204.193.3.075.01.135.018.192.032a.712.712 0 0 1 .518.517l.064.254c.242.956.489 1.933.888 2.818.271.029.475.125.607.321a.722.722 0 0 1 .071.65c.735.727.892 1.823 1.002 2.59.247 2.308.09 4.595-.067 6.806a69.454 69.454 0 0 0-.186 3.325.764.764 0 0 1-.053.25c-.111.278-.268.51-.403.717-.157.232-.29.432-.307.614a.722.722 0 0 1-.175.407l-.157.182a8.697 8.697 0 0 1-.653.702c-.364.343-.788.51-1.163.66l-.26.107a.99.99 0 0 1-.093.036c-.154.157-.485.546-1.188 1.51a.707.707 0 0 1-.575.292" mask="url(#b)"/>
        </g>
        <path fill="#A9884E" d="M71.893 43.946a.788.788 0 0 1-.332-.075c-.478-.246-1.141-1.166-1.34-1.933a1.586 1.586 0 0 1-.607-.824.701.701 0 0 1-.332-.646.71.71 0 0 1 .749-.67l.271.024c.357.036.65.346.65.71 0 .057.014.214.081.225.193.043.354.16.457.325.1.164.129.367.079.553.042.135.456.83.66.97.35.182.481.603.303.956a.713.713 0 0 1-.639.385M88.313 46.49a.717.717 0 0 1-.692-.888 4.53 4.53 0 0 0 .06-.354c.061-.4.133-.899.504-1.32a.7.7 0 0 1 .37-.221c.133-.057.45-.378.496-.517-.01-.393.3-.689.693-.696h.017c.39 0 .703.339.71.728.018.681-.677 1.441-1.273 1.751-.05.118-.075.297-.104.482-.025.168-.05.335-.089.496a.716.716 0 0 1-.692.539M46.453 53.37a.706.706 0 0 1-.703-.599.717.717 0 0 1 .207-.631c.082-.168.222-.571.307-.824.257-.735.382-1.096.657-1.267.25-.253.685-.617 1.341-1.138l.268-.218a.707.707 0 0 1 .417-.16c.096-.104.232-.282.314-.443a.713.713 0 0 1 .57-.392c.358-.082 3.08-1.256 4.806-2.034a.704.704 0 0 1 .753.108c.271-.04.546-.022.824.156.421.197.81.36 1.049.225a.721.721 0 0 1 .974.268.713.713 0 0 1-.268.97c-.91.521-1.83.075-2.433-.21a2.62 2.62 0 0 1-.492.15.735.735 0 0 1-.46-.079c-1.313.582-3.3 1.452-4.21 1.759-.207.32-.596.824-1.067.945a.666.666 0 0 1-.089.015l-.064.053c-.303.243-1.117.892-1.267 1.077l-.05.061c-.064.146-.139.378-.224.62-.35 1.025-.514 1.492-1.046 1.578a.618.618 0 0 1-.114.01M9.179 53.924a.712.712 0 0 1-.671-.474c-.104-.278-.296-.567-.5-.87-.428-.636-.966-1.424-.763-2.47a.72.72 0 0 1 .442-.534.73.73 0 0 1 .621.053c.054-.01.129-.032.19-.046.138-.04.278-.072.413-.09.378-.003.692.197.778.55 0 .01.035.193.035.203.008.036.018.079.025.122l.047-.004c.217-.04.453.096.592.282.14.182.182.42.114.642-.085.285-.014.62.24 1.124a.713.713 0 0 1-.293.952l-.21.118a4.78 4.78 0 0 1-.828.4.666.666 0 0 1-.232.042M.723 74.87a.7.7 0 0 1-.314-.075.704.704 0 0 1-.389-.528c-.064-.403.04-.767.118-1.034.018-.058.04-.125.054-.186a.712.712 0 0 1-.033-.878l.15-.207a4.85 4.85 0 0 1 .557-.706.71.71 0 0 1 1.006 0c.214.21.514.385.828.567.66.39 1.484.867 1.755 1.902.06.235 0 .489-.171.667a.728.728 0 0 1-.643.218c-.431-.05-2.358.164-2.715.231a.799.799 0 0 1-.203.029M122.672 83.204a.715.715 0 0 1-.282-.061c-.082-.032-.171-.06-.257-.093-.382-.128-.952-.325-1.252-.906-.182-.343-.271-.71-.353-1.038-.114-.468-.193-.76-.414-.938a.715.715 0 0 1-.136-.96c.104-.16.225-.34.382-.492-.564-.29-1.124-.607-1.637-1.024-.229-.225-.379-.4-.532-.578-.389-.453-.76-.882-1.238-1.067a.721.721 0 0 1-.392-.382.742.742 0 0 1-.029-.489c-.589-.438-1.07-.966-1.541-1.484l-.01-.01a.723.723 0 0 1-.836-.175.715.715 0 0 1 .061-1.006l.353-.318a.707.707 0 0 1 1.003.029l.485.517c.55.607 1.067 1.177 1.716 1.552.271.157.403.47.339.77.474.325.838.746 1.17 1.128.136.157.271.317.414.464.506.4 1.177.735 1.89 1.088.254.121.5.246.743.374.342.154.55.45.695.668a.724.724 0 0 1-.117.96.698.698 0 0 1-.946-.015l-.028-.025a5.884 5.884 0 0 0-.371.018c.189.353.282.731.36 1.052.068.271.128.525.235.717.04.082.275.164.446.218.125.043.247.09.36.136a.712.712 0 0 1 .375.938.716.716 0 0 1-.656.432M108.893 77.786a.72.72 0 0 1-.62-.36 2.537 2.537 0 0 1-.311-1.067.715.715 0 0 1 .703-.77l.702-.008c.393 0 .714.321.714.714l-.004.674a.717.717 0 0 1-.56.7l-.47.099c-.05.01-.1.018-.154.018"/>
        <path fill="#A9884E" d="M108.126 77.953a.716.716 0 0 1-.706-.617l-.057-.432a.704.704 0 0 1 .182-.55c.235-.26.624-.245.974-.231a.719.719 0 0 1 .524 1.163 7.9 7.9 0 0 1-.403.45.716.716 0 0 1-.514.217M65.622 127.01c-.624 0-1.252-.01-1.876-.028-19.6-.588-37.845-10.66-48.808-26.946a.71.71 0 0 1 .196-.988.709.709 0 0 1 .988.196c10.706 15.901 28.526 25.737 47.663 26.311 16.207.55 31.473-5.43 43.114-16.643a.712.712 0 0 1 1.01.018.707.707 0 0 1-.018 1.006c-11.47 11.053-26.418 17.075-42.269 17.075"/>
        <g transform="translate(9.135 .578)">
            <mask id="d" fill="#fff">
                <use xlink:href="#c"/>
            </mask>
            <path fill="#A9884E" d="M1.374 38.104a.723.723 0 0 1-.292-.064c-.36-.157-.521-.582-.36-.942C10.86 14.436 33.474.273 58.258 1.015c16.928.51 33.021 8.124 44.156 20.892.264.3.232.75-.064 1.006a.722.722 0 0 1-1.01-.064C90.467 10.377 74.748 2.942 58.22 2.446c-24.231-.77-46.29 13.1-56.193 35.237a.72.72 0 0 1-.653.42" mask="url(#d)"/>
        </g>
        <path fill="#A9884E" d="M111.053 23.694h-.022l-11.11-.332a.716.716 0 0 1-.691-.735c.01-.392.406-.703.735-.692l10.396.31.31-10.395c.01-.396.282-.657.735-.696a.718.718 0 0 1 .692.735l-.332 11.113a.718.718 0 0 1-.713.692M13.941 111.364a.715.715 0 0 1-.706-.813l1.53-11.006a.727.727 0 0 1 .806-.61l11.01 1.527a.72.72 0 0 1 .61.806c-.057.39-.414.646-.806.61l-10.3-1.434-1.438 10.303a.709.709 0 0 1-.706.617"/>
    </g>
</svg>
