<svg xmlns="http://www.w3.org/2000/svg" width="117" height="122" viewBox="0 0 117 122">
    <g fill="#A9884E" fill-rule="evenodd">
        <path d="M94.404 73.252c0 19.72-34.236 34.95-35.7 35.597a.865.865 0 0 1-.62-.003c-1.46-.647-35.693-16.01-35.693-35.594V27.766a.78.78 0 0 1 .777-.777c29.643 0 34.483-11.473 34.49-11.513a.823.823 0 0 1 .74-.487.784.784 0 0 1 .726.5c.05.117 5.164 11.5 34.507 11.5.427 0 .773.35.773.777v45.486zm-.773-47.596c-28.187 0-33.233-10.584-33.27-10.667-.317-.797-1.077-1.317-1.977-1.333-.84 0-1.603.503-1.956 1.3-.044.106-5.01 10.7-33.26 10.7-1.164 0-2.11.946-2.11 2.11v45.486c0 20.097 32.75 35.16 36.483 36.81.27.12.543.177.857.177.31 0 .606-.063.85-.173 1.49-.654 36.49-16.234 36.49-36.814v-45.49a2.115 2.115 0 0 0-2.107-2.106z"/>
        <path d="M58.461 98.942c-1.166-.51-28.563-12.703-28.563-28.227V34.72c22.823-.04 27.96-8.51 28.453-9.644.77 1.49 6 9.604 28.547 9.644l.003 35.996c0 15.654-28.276 28.1-28.44 28.227m28.6-65.557c-23.546 0-27.533-8.933-27.57-9.013a1.166 1.166 0 0 0-1.08-.743h-.016c-.474 0-.9.29-1.087.723-.037.087-4.107 9.033-27.57 9.033-.653 0-1.173.534-1.173 1.177v36.153c0 16.39 28.176 28.927 29.36 29.447.156.077.31.1.476.1.15 0 .324-.023.47-.1 1.197-.52 29.364-13.057 29.364-29.447l-.004-36.153c0-.643-.516-1.177-1.17-1.177"/>
        <path d="M58.4 87.1c-2.093-.96-19.33-9.176-19.33-19.08V43.497c13.364-.11 17.97-4.457 19.317-6.28 1.314 1.827 5.844 6.17 19.34 6.28l.004 24.523c0 9.894-16.92 17.977-19.33 19.08m19.85-44.936c-16.307 0-19.07-6.187-19.097-6.244a.804.804 0 0 0-.747-.513h-.013a.831.831 0 0 0-.75.5c-.027.063-2.843 6.257-19.093 6.257a.815.815 0 0 0-.814.816v25.04c0 11.35 19.514 20.034 20.334 20.394.11.053.213.07.33.07a.723.723 0 0 0 .326-.07c.827-.36 20.337-9.044 20.337-20.394l-.003-25.04a.814.814 0 0 0-.81-.816"/>
        <path d="M71.524 49.545l-16.527 20.31-9.793-8.69a.663.663 0 0 0-.944.056.665.665 0 0 0 .057.94l10.317 9.15c.123.11.28.17.44.17.016 0 .036 0 .056-.003.18-.013.35-.1.464-.243l16.966-20.85a.667.667 0 0 0-1.036-.84M13.539 61.947c0-.367-.3-.667-.667-.667H1.219a.666.666 0 1 0 0 1.334h11.653c.367 0 .667-.3.667-.667M58.399 114.789c-.367 0-.667.3-.667.667v5.186c0 .367.3.667.667.667.366 0 .666-.3.666-.667v-5.186c0-.367-.3-.667-.666-.667M58.399 9.102c.366 0 .666-.3.666-.667V1.432c0-.367-.3-.667-.666-.667-.367 0-.667.3-.667.667v7.003c0 .367.3.667.667.667M13.206 35.967a.66.66 0 0 0 .91-.233.661.661 0 0 0-.233-.913l-7.22-4.274a.663.663 0 0 0-.91.234.661.661 0 0 0 .233.913l7.22 4.273zM31.576 105.957l-4.574 7.724a.664.664 0 0 0 .574 1.006c.226 0 .45-.116.573-.326l4.573-7.727a.66.66 0 0 0-.236-.91.664.664 0 0 0-.91.233M33.565 16.345a.67.67 0 0 0 .903.277.67.67 0 0 0 .277-.9l-4.017-7.6a.666.666 0 1 0-1.177.626l4.014 7.597zM14.883 84.174L4.576 89.617a.667.667 0 1 0 .627 1.177l10.303-5.44a.667.667 0 1 0-.623-1.18M115.58 61.28h-11.654a.666.666 0 0 0 0 1.333h11.654a.666.666 0 1 0 0-1.333M103.252 36.062c.117 0 .233-.03.34-.094l7.223-4.276a.66.66 0 0 0 .234-.91.656.656 0 0 0-.914-.234l-7.223 4.274a.661.661 0 0 0-.233.91c.123.213.346.33.573.33M85.547 106.501c-.193-.323-.607-.43-.91-.233a.66.66 0 0 0-.237.91l4.254 7.18a.657.657 0 0 0 .91.236.661.661 0 0 0 .233-.913l-4.25-7.18zM82.832 16.348c.237 0 .47-.13.59-.353l3.827-7.247a.667.667 0 1 0-1.177-.627l-3.83 7.247a.67.67 0 0 0 .277.903c.103.05.21.077.313.077M101.917 84.174a.665.665 0 0 0-.903.276.671.671 0 0 0 .28.904l10.303 5.44c.104.053.21.08.314.08a.667.667 0 0 0 .313-1.257l-10.307-5.443z"/>
    </g>
</svg>
