<svg xmlns="http://www.w3.org/2000/svg" width="16" height="15" viewBox="0 0 16 15">
    <g fill="#A9884E" fill-rule="evenodd">
        <path d="M14.433 10.208h-6l1.065-4.135h3.867z"/>
        <path d="M11.383 7.467a.534.534 0 0 1-.533-.534l.001-6.156a.533.533 0 1 1 1.067 0l-.001 6.156a.534.534 0 0 1-.534.534M3.214 7.391c.207.524.73.896 1.345.896.625 0 1.154-.382 1.353-.916M4.558 3.716a3 3 0 0 0-3 3h6a3 3 0 0 0-3-3"/>
        <path d="M4.517 5.24a.534.534 0 0 1-.534-.533L3.984.776a.534.534 0 0 1 1.067 0L5.05 4.707a.534.534 0 0 1-.533.534M14.63 14.4H1.287a.534.534 0 0 1 0-1.067H14.63a.534.534 0 0 1 0 1.067"/>
        <path d="M14.63 1.067H1.287a.534.534 0 0 1 0-1.067H14.63a.534.534 0 0 1 0 1.067M10.08 10.836c.207.523.731.896 1.345.896.625 0 1.155-.382 1.354-.917"/>
    </g>
</svg>
