<svg xmlns="http://www.w3.org/2000/svg" xmlns:xlink="http://www.w3.org/1999/xlink" width="16" height="16" viewBox="0 0 16 16">
    <defs>
        <path id="a" d="M.064 6.4H14.53V.917H.064z"/>
    </defs>
    <g fill="none" fill-rule="evenodd">
        <g transform="translate(.6 8.672)">
            <mask id="b" fill="#fff">
                <use xlink:href="#a"/>
            </mask>
            <path fill="#A9884E" d="M1.46 1.983a.329.329 0 0 0-.33.329v2.693c0 .182.148.329.33.329h11.674c.178 0 .33-.15.33-.329V2.312a.334.334 0 0 0-.33-.329H1.46zM13.133 6.4H1.46C.69 6.4.064 5.774.064 5.005V2.312C.064 1.542.69.917 1.46.917h11.675c.77 0 1.396.626 1.396 1.395v2.693c0 .77-.626 1.395-1.396 1.395z" mask="url(#b)"/>
        </g>
        <path fill="#A9884E" d="M5.61 14.898a.534.534 0 0 1-.533-.533v-4.068a.533.533 0 1 1 1.067 0v4.068a.534.534 0 0 1-.534.533M10.03 14.898a.534.534 0 0 1-.534-.533v-4.068a.533.533 0 1 1 1.066 0v4.068a.534.534 0 0 1-.533.533M4.248 12.364a.698.698 0 1 1-1.396 0 .698.698 0 0 1 1.396 0"/>
        <path fill="#A9884E" d="M3.551 11.933a.43.43 0 1 0 0 .862.43.43 0 0 0 0-.862m0 1.396a.964.964 0 1 1 0-1.928.964.964 0 0 1 0 1.928M8.51 9.597l-.112.11a.534.534 0 0 0 .756.755l.864-.865H8.509zM10.081 3.285a.325.325 0 0 1 .233-.094c.088 0 .17.033.232.094l1.904 1.903a.337.337 0 0 1 .001.468l-2.243 2.243-2.37-2.37 2.243-2.244zM4.838 8.53l2.246-2.247L9.33 8.53h1.753l2.123-2.121a1.4 1.4 0 0 0-.001-1.974l-1.904-1.903a1.385 1.385 0 0 0-.987-.408h-.001c-.374 0-.724.145-.987.407l-5.998 6h1.509zM2.335 9.597c-.02 0-.039-.01-.06-.012l-.128.127a.534.534 0 0 0 .754.754l.87-.87H2.335z"/>
        <path fill="#A9884E" d="M1.731 2.002c0-.178.15-.33.329-.33h2.693c.178 0 .329.152.329.33v3.172h-3.35V2.002zm4.417 2.236V2.002c0-.77-.626-1.396-1.395-1.396H2.06c-.77 0-1.395.626-1.395 1.396v11.675a.533.533 0 1 0 1.066 0V6.24h2.414l2.003-2.003zM5.081 6.812v.162a.533.533 0 1 0 1.067 0V5.746L5.08 6.812z"/>
    </g>
</svg>
