<svg xmlns="http://www.w3.org/2000/svg" width="15" height="14" viewBox="0 0 15 14">
    <g fill="#A9884E" fill-rule="evenodd">
        <path d="M4.388 5.474c-.864 0-1.567.703-1.567 1.567a1.57 1.57 0 0 0 1.567 1.567A1.57 1.57 0 0 0 5.954 7.04c0-.864-.702-1.567-1.566-1.567M14.1 6.507H6.966a2.668 2.668 0 0 1 0 1.067H14.1a.534.534 0 0 0 0-1.067M1.754 7.04c0-.182.02-.36.055-.533H.755a.533.533 0 1 0 0 1.067h1.054a2.668 2.668 0 0 1-.055-.533M8.176 2.064c0-.172.02-.339.05-.5H.754a.534.534 0 0 0 0 1.066h7.487a2.604 2.604 0 0 1-.065-.566M10.81.497c-.865 0-1.568.703-1.568 1.567A1.57 1.57 0 0 0 10.81 3.63a1.57 1.57 0 0 0 1.567-1.567c0-.864-.703-1.567-1.567-1.567M14.1 1.564h-.708c.032.162.051.328.051.5 0 .195-.025.383-.065.566h.722a.534.534 0 0 0 0-1.066M7.427 10.452c-.864 0-1.567.703-1.567 1.567a1.57 1.57 0 0 0 1.567 1.567 1.57 1.57 0 0 0 1.567-1.567c0-.864-.703-1.567-1.567-1.567M14.1 11.497h-4.092a2.625 2.625 0 0 1-.006 1.067H14.1a.534.534 0 0 0 0-1.067M4.794 12.019c0-.18.019-.353.052-.522H.754a.533.533 0 1 0 0 1.067h4.097a2.7 2.7 0 0 1-.057-.545"/>
    </g>
</svg>
