<svg xmlns="http://www.w3.org/2000/svg" xmlns:xlink="http://www.w3.org/1999/xlink" width="43" height="49" viewBox="0 0 43 49">
    <defs>
        <path id="a" d="M36.828 6.5H.038V.012h36.79V6.5z"/>
    </defs>
    <g fill="none" fill-rule="evenodd">
        <path fill="#A9884E" d="M21.1 27.12c.018 0 .033-.002.048-.005h.002a.33.33 0 0 0 .065.007c.785.026 18.818.724 19.476 8.805l-19.534-.008-19.533.008c.659-8.058 18.694-8.78 19.476-8.807zm2.993 10.192c-.711 1.917-1.073 2.892-3.1 2.892h-.085c-2.096-.028-2.397-.914-3.062-2.86l-.119-.342H24.21c-.04.102-.08.212-.117.31zm-7.512-.308c.084.236.164.47.24.691.678 1.987 1.214 3.556 4.074 3.593h.09c2.787 0 3.409-1.669 4.124-3.6.08-.218.167-.45.258-.684l15.886.007a.542.542 0 0 0 .541-.536c.12-9.36-18.087-10.348-20.479-10.436a.555.555 0 0 0-.085-.007h-.147c-.032 0-.065.004-.1.009C18.53 26.13.4 27.109.521 36.475a.542.542 0 0 0 .542.536l15.518-.007zM25.861 1.64c-.102.605-.407 1.597-1.317 2.266-.856.631-.999 1.526-1.127 2.317-.143.894-.26 1.419-1.077 1.768-.062.039-.3.127-.89.134a.442.442 0 0 0-.074-.007c-.03 0-.067 0-.089.005-.013-.002-.026-.002-.039-.002-.634-.009-.849-.113-1.005-.208-.715-.319-.819-.843-.938-1.742-.106-.793-.228-1.693-1.068-2.345-.884-.689-1.168-1.614-1.257-2.188l8.881.002zm-8.287 3.04c.487.381.567.964.658 1.634.12.894.27 2.008 1.478 2.535.24.17.609.255 1.06.303l-.011 15.112a.54.54 0 1 0 1.083 0l.011-15.086c.45-.033.81-.104.994-.236 1.32-.546 1.498-1.658 1.638-2.548.109-.67.202-1.248.7-1.617C27.014 3.432 27 1.185 26.997 1.09a.54.54 0 0 0-.542-.533L16.399.555a.541.541 0 0 0-.541.515c-.005.091-.078 2.217 1.716 3.61z"/>
        <g transform="translate(3.333 41.952)">
            <mask id="b" fill="#fff">
                <use xlink:href="#a"/>
            </mask>
            <path fill="#A9884E" d="M30.447.013a.322.322 0 0 0-.25.127.498.498 0 0 0 0 .61s1.051.98 1.383 1.964H5.435C5.729 1.733 6.668.75 6.668.75a.498.498 0 0 0 0-.609c-.137-.17-.36-.17-.499 0L.038 3.254l6.131 3.12a.317.317 0 0 0 .25.126.32.32 0 0 0 .249-.126.5.5 0 0 0 0-.611s-.936-.982-1.233-1.965h26.147c-.331.981-1.384 1.965-1.384 1.965a.5.5 0 0 0 0 .61c.136.17.36.17.498 0l6.132-3.115L30.696.14a.32.32 0 0 0-.25-.127" mask="url(#b)"/>
        </g>
        <path fill="#A9884E" d="M1.423 38.964H1.42a.54.54 0 0 0-.542.54l-.01 5.09c0 .298.24.543.539.543h.002a.541.541 0 0 0 .541-.54l.011-5.089a.54.54 0 0 0-.54-.544M41.57 38.964a.54.54 0 0 0-.542.542l-.009 5.09a.542.542 0 0 0 1.084 0l.008-5.09a.54.54 0 0 0-.541-.542"/>
    </g>
</svg>
