<svg xmlns="http://www.w3.org/2000/svg" width="51" height="40" viewBox="0 0 51 40">
    <g fill="#A9884E" fill-rule="evenodd">
        <path d="M49.88 38.503h-7.152a.543.543 0 0 0-.541.542c0 .299.244.541.541.541h7.152a.542.542 0 0 0 0-1.083M7.971 38.503H.905a.543.543 0 0 0-.541.542c0 .299.245.541.541.541h7.066a.542.542 0 0 0 0-1.083M39.233 38.503H11.552a15.913 15.913 0 0 1-2.169-8c0-3.904 1.445-7.676 4.067-10.622a.535.535 0 0 0 .136-.36v-6.12c0-6.512 5.296-11.807 11.806-11.807 6.511 0 11.809 5.295 11.809 11.806v6.121c0 .134.047.26.136.36a15.967 15.967 0 0 1 4.065 10.623c0 2.797-.75 5.555-2.169 8m-.949-19.187V13.4c0-7.107-5.783-12.89-12.892-12.89-7.106 0-12.889 5.783-12.889 12.89v5.917A17.039 17.039 0 0 0 8.3 30.504c0 3.092.855 6.144 2.478 8.822.098.16.273.26.464.26h28.301a.54.54 0 0 0 .461-.26 17.036 17.036 0 0 0 2.481-8.822c0-4.104-1.493-8.069-4.2-11.187"/>
        <path d="M32.638 15.03a17.128 17.128 0 0 0-7.245-1.619c-2.498 0-4.986.557-7.243 1.618V13.4c0-3.995 3.25-7.245 7.243-7.245 3.995 0 7.245 3.25 7.245 7.245v1.63zM25.393 5.07c-4.591 0-8.327 3.738-8.327 8.33v2.506c0 .19.098.366.265.466a.538.538 0 0 0 .533.013c4.617-2.475 10.439-2.477 15.06 0 .08.043.167.063.256.063a.537.537 0 0 0 .541-.542V13.4c0-4.591-3.737-8.329-8.328-8.329z"/>
    </g>
</svg>
