<svg xmlns="http://www.w3.org/2000/svg" width="42" height="41" viewBox="0 0 42 41">
    <g fill="#A9884E" fill-rule="evenodd">
        <path d="M29.338 39.255h-17.05L1.659 25.928 5.454 9.303l15.36-7.397 15.36 7.397 3.795 16.625-10.63 13.327zm7.835-30.448a.549.549 0 0 0-.295-.368L21.048.816a.542.542 0 0 0-.47 0L4.746 8.44a.551.551 0 0 0-.292.368L.544 25.939a.538.538 0 0 0 .105.46l10.955 13.736a.54.54 0 0 0 .425.203h17.57a.532.532 0 0 0 .422-.203l10.956-13.737a.545.545 0 0 0 .107-.46L37.173 8.808z"/>
        <path d="M22.817 17.203a.542.542 0 0 0 0-1.083H18.81a.543.543 0 0 0-.542.542c0 .299.245.541.542.541h1.462v14.084H18.81a.543.543 0 0 0-.542.541c0 .3.245.542.542.542h4.008a.542.542 0 0 0 0-1.083h-1.462V17.203h1.462zM20.813 10.718a1.218 1.218 0 1 1-1.218 1.218c0-.672.545-1.218 1.218-1.218m0 3.521a2.304 2.304 0 0 0 2.301-2.303 2.304 2.304 0 0 0-2.3-2.301 2.304 2.304 0 0 0-2.302 2.3 2.304 2.304 0 0 0 2.301 2.304"/>
    </g>
</svg>
