<svg xmlns="http://www.w3.org/2000/svg" width="38" height="40" viewBox="0 0 38 40">
    <g fill="#A9884E" fill-rule="evenodd">
        <path d="M19.067 6.175c-.41.75-2.581 3.71-11.119 3.71l.07 14.294c0 5.981 10.631 10.75 11.083 10.952.396-.2 11.027-4.939 11.027-10.952V9.886c-8.606-.017-10.708-3.057-11.061-3.71m.006 29.998a.969.969 0 0 1-.397-.08c-1.2-.53-11.71-5.368-11.71-11.915V9.814c0-.54.44-.98.982-.98 8.607 0 10.201-3.164 10.217-3.196a.989.989 0 0 1 .903-.594c.418.008.77.251.917.617.007.013 1.59 3.172 10.214 3.172.536 0 .977.438.982.977v14.37c0 6.578-10.513 11.387-11.712 11.914a.953.953 0 0 1-.396.08"/>
        <path d="M19.077 8.509h-.006a.376.376 0 0 0-.342.228c-.013.027-1.297 2.853-8.706 2.853a.372.372 0 0 0-.372.372V23.38c0 5.175 8.899 9.135 9.273 9.299.05.023.096.032.15.032a.337.337 0 0 0 .147-.032c.38-.164 9.274-4.124 9.274-9.299V11.962a.372.372 0 0 0-.371-.372c-7.435 0-8.694-2.821-8.707-2.847a.368.368 0 0 0-.34-.234m-.013 1.522c.952 1.01 3.22 2.484 8.377 2.604l.002 10.744c0 3.627-5.795 7.036-8.366 8.21-1.46-.69-8.373-4.171-8.373-8.21V12.635c5.111-.122 7.394-1.603 8.36-2.604"/>
        <path d="M19.076 12.228h-.004a.26.26 0 0 0-.237.158c-.008.02-.898 1.976-6.03 1.976a.258.258 0 0 0-.257.258v7.907c0 3.584 6.163 6.327 6.422 6.44a.223.223 0 0 0 .103.022.223.223 0 0 0 .103-.022c.262-.113 6.423-2.856 6.423-6.44V14.62a.257.257 0 0 0-.258-.258c-5.15 0-6.02-1.954-6.03-1.972a.255.255 0 0 0-.235-.162m-.002 1.503c.796.7 2.385 1.544 5.471 1.668l.002 7.128c0 2.268-3.764 4.52-5.473 5.33-1.782-.844-5.474-3.066-5.474-5.33V15.4c3.088-.124 4.676-.962 5.474-1.669"/>
        <path d="M18.023 23.936a.524.524 0 0 1-.35-.132l-3.257-2.89a.527.527 0 0 1 .7-.787l2.844 2.525 5.012-6.158a.525.525 0 1 1 .817.664l-5.358 6.584a.53.53 0 0 1-.408.194M4.696 21.135h-3.68a.527.527 0 0 1 0-1.053h3.68a.527.527 0 0 1 0 1.053M19.073 39.671a.527.527 0 0 1-.526-.526v-1.638a.527.527 0 0 1 1.052 0v1.638c0 .29-.235.526-.526.526M19.073 4.237a.527.527 0 0 1-.526-.526V1.499a.527.527 0 0 1 1.052 0v2.212c0 .29-.235.526-.526.526M4.909 12.751a.519.519 0 0 1-.269-.074l-2.28-1.35a.527.527 0 0 1 .537-.905l2.28 1.35a.527.527 0 0 1-.268.98M9.34 37.58a.529.529 0 0 1-.454-.795l1.443-2.438a.528.528 0 0 1 .907.536l-1.443 2.44a.528.528 0 0 1-.454.257M11.416 6.636a.525.525 0 0 1-.465-.28l-1.268-2.4a.528.528 0 0 1 .22-.711.53.53 0 0 1 .712.22l1.266 2.4a.525.525 0 0 1-.465.771M2.175 30.059a.525.525 0 0 1-.245-.992l3.253-1.718a.525.525 0 1 1 .491.93l-3.253 1.719a.526.526 0 0 1-.246.06M37.13 21.135h-3.68a.527.527 0 0 1 0-1.053h3.68a.527.527 0 0 1 0 1.053M33.237 12.751a.526.526 0 0 1-.268-.979l2.281-1.35a.527.527 0 0 1 .537.905l-2.281 1.35a.519.519 0 0 1-.269.074M28.808 37.58a.528.528 0 0 1-.454-.257l-1.342-2.269a.527.527 0 1 1 .906-.537l1.344 2.269a.529.529 0 0 1-.454.794M26.789 6.525a.526.526 0 0 1-.465-.772l1.207-2.288a.527.527 0 0 1 .932.492l-1.209 2.287a.525.525 0 0 1-.465.28M35.972 30.059a.526.526 0 0 1-.245-.061l-3.255-1.718a.527.527 0 0 1 .491-.932l3.254 1.72a.525.525 0 0 1-.245.99"/>
    </g>
</svg>
