<svg xmlns="http://www.w3.org/2000/svg" width="38" height="38" viewBox="0 0 38 38">
    <g fill="#A9884E" fill-rule="evenodd">
        <path d="M2.7 8.793c-.85 0-1.54.691-1.54 1.541v24.688c0 .85.69 1.541 1.54 1.541h31.947c.85 0 1.54-.692 1.54-1.54V10.333c0-.85-.69-1.54-1.54-1.54H2.7zm31.947 28.77H2.7c-1.4 0-2.54-1.14-2.54-2.54V10.333a2.544 2.544 0 0 1 2.54-2.54h31.947a2.543 2.543 0 0 1 2.54 2.54v24.688a2.543 2.543 0 0 1-2.54 2.541z"/>
        <path d="M26.042 8.554h-1V6.767a2.186 2.186 0 0 0-2.184-2.184h-8.37c-1.204 0-2.183.98-2.183 2.184v1.787h-1V6.767a3.186 3.186 0 0 1 3.183-3.184h8.37a3.187 3.187 0 0 1 3.184 3.184v1.787zm3 0h-1V6.767a5.19 5.19 0 0 0-5.184-5.184h-8.37a5.189 5.189 0 0 0-5.183 5.184v1.787h-1V6.767A6.191 6.191 0 0 1 14.488.583h8.37a6.191 6.191 0 0 1 6.184 6.184v1.787zM18.671 34.719c-.539 0-1.012-.267-1.328-.752a.499.499 0 1 1 .836-.547c.262.399.73.396.986-.005a.5.5 0 0 1 .842.541c-.313.485-.799.763-1.336.763"/>
        <path d="M17.14 33.136c.615.006 2.48.012 3.064.004a.165.165 0 0 0-.005-.098.5.5 0 0 1 .03-.468.157.157 0 0 0 .01-.135.503.503 0 0 1 .04-.445.163.163 0 0 0 .007-.144c-.13-.193-.127-.477.032-.647.483-.518 1.643-2.376 1.643-3.896 0-1.72-1.474-3.117-3.286-3.117-1.813 0-3.29 1.398-3.29 3.117 0 1.288 1.175 3.383 1.65 3.886a.5.5 0 0 1 .04.64c-.034.065-.03.117-.004.158.083.135.097.3.039.448a.148.148 0 0 0 .006.133.5.5 0 0 1 .032.473.16.16 0 0 0-.007.09m1.592 1.009c-.982 0-1.983-.031-2.078-.092-.393-.24-.586-.72-.495-1.177a1.147 1.147 0 0 1-.044-.576 1.155 1.155 0 0 1-.028-.686c-.632-.85-1.702-2.845-1.702-4.306 0-2.271 1.924-4.117 4.289-4.117 2.363 0 4.286 1.846 4.286 4.117 0 1.7-1.091 3.537-1.698 4.322.057.226.046.459-.03.673.033.19.017.389-.045.57.09.46-.105.94-.507 1.187-.091.056-1.01.085-1.948.085"/>
        <path d="M17.774 32.038a.5.5 0 0 1-.497-.453l-.397-4.184a.499.499 0 0 1 .749-.479c.416.242 1.234.564 2.072.033a.498.498 0 0 1 .763.481l-.501 4.158a.49.49 0 0 1-.555.436.5.5 0 0 1-.437-.555l.398-3.305a2.835 2.835 0 0 1-1.414-.037l.318 3.358a.501.501 0 0 1-.451.545l-.048.002M18.763 34.719c-.541 0-1.013-.268-1.329-.753a.5.5 0 0 1 .838-.546c.258.398.727.397.985-.005a.502.502 0 0 1 .842.54c-.313.486-.799.764-1.336.764"/>
        <path d="M20.746 32.036h-4.074a.5.5 0 1 1 0-1h4.074a.5.5 0 0 1 0 1M7.844 34.719c-.54 0-1.013-.268-1.329-.753a.5.5 0 0 1 .838-.546c.258.398.727.397.984-.005a.5.5 0 0 1 .842.541c-.316.492-.79.763-1.335.763"/>
        <path d="M6.314 33.136c.615.006 2.478.012 3.063.004a.16.16 0 0 0-.004-.094.495.495 0 0 1 .03-.474.15.15 0 0 0 .009-.131.497.497 0 0 1 .039-.447.163.163 0 0 0 .007-.144c-.13-.193-.127-.477.032-.647.483-.52 1.644-2.377 1.644-3.896 0-1.72-1.474-3.117-3.287-3.117s-3.29 1.398-3.29 3.117c0 1.288 1.175 3.383 1.65 3.886a.5.5 0 0 1 .04.64c-.033.065-.03.117-.004.158.083.135.097.3.039.448a.153.153 0 0 0 .007.135.5.5 0 0 1 .03.47.163.163 0 0 0-.005.092m1.589 1.008c-.982 0-1.981-.031-2.076-.092-.392-.24-.585-.72-.494-1.177a1.137 1.137 0 0 1-.045-.576 1.155 1.155 0 0 1-.027-.686c-.633-.848-1.703-2.845-1.703-4.306 0-2.271 1.924-4.117 4.289-4.117 2.364 0 4.287 1.846 4.287 4.117 0 1.7-1.091 3.537-1.7 4.322.058.225.047.458-.028.672.033.19.017.387-.044.568.094.452-.101.94-.507 1.19-.091.056-1.013.085-1.952.085"/>
        <path d="M6.946 32.038a.5.5 0 0 1-.497-.453l-.397-4.184a.499.499 0 0 1 .749-.479c.415.24 1.233.564 2.073.033a.498.498 0 0 1 .763.481l-.502 4.158c-.032.275-.296.48-.555.436a.5.5 0 0 1-.437-.555l.399-3.305a2.85 2.85 0 0 1-1.415-.037l.318 3.358a.501.501 0 0 1-.451.545l-.048.002M7.936 34.719c-.54 0-1.013-.267-1.33-.752a.499.499 0 1 1 .837-.547c.26.398.728.397.986-.005a.5.5 0 0 1 .842.541c-.316.492-.791.763-1.335.763"/>
        <path d="M9.918 32.036H5.844a.5.5 0 1 1 0-1h4.074a.5.5 0 0 1 0 1M29.591 34.719c-.54 0-1.013-.268-1.329-.753a.5.5 0 0 1 .838-.546c.258.398.727.397.984-.005a.5.5 0 0 1 .842.541c-.316.492-.79.763-1.335.763"/>
        <path d="M27.967 33.136c.613.007 2.48.013 3.065.004a.16.16 0 0 0-.004-.094.495.495 0 0 1 .03-.474.15.15 0 0 0 .01-.131.497.497 0 0 1 .038-.447.16.16 0 0 0 .007-.144c-.124-.193-.125-.48.032-.647.484-.52 1.644-2.38 1.644-3.896 0-1.72-1.474-3.117-3.287-3.117s-3.289 1.398-3.289 3.117c0 1.288 1.174 3.383 1.65 3.886a.5.5 0 0 1 .04.64c-.034.066-.03.118-.004.16a.505.505 0 0 1 .038.446.153.153 0 0 0 .007.135.5.5 0 0 1 .022.49.108.108 0 0 0 .001.072m1.593 1.008c-.982 0-1.983-.031-2.078-.092-.392-.24-.585-.72-.494-1.176a1.145 1.145 0 0 1-.045-.578 1.156 1.156 0 0 1-.027-.684c-.632-.848-1.703-2.846-1.703-4.307 0-2.271 1.924-4.117 4.29-4.117 2.363 0 4.286 1.846 4.286 4.117 0 1.699-1.09 3.536-1.698 4.322.057.225.046.458-.03.672.033.19.017.387-.044.568.095.453-.1.94-.508 1.19-.09.056-1.01.085-1.949.085"/>
        <path d="M28.6 32.038a.5.5 0 0 1-.496-.453l-.396-4.184a.499.499 0 0 1 .749-.479c.415.242 1.235.564 2.072.033a.498.498 0 0 1 .763.481l-.501 4.158a.49.49 0 0 1-.555.436.5.5 0 0 1-.437-.555l.398-3.305a2.835 2.835 0 0 1-1.414-.037l.317 3.358a.501.501 0 0 1-.451.545l-.048.002"/>
        <path d="M31.575 32.036H27.5a.5.5 0 1 1 0-1h4.075a.5.5 0 0 1 0 1M18.671 22.412c-.54 0-1.012-.268-1.329-.753a.501.501 0 0 1 .838-.547c.262.401.728.397.985-.004a.5.5 0 0 1 .842.541c-.313.485-.799.763-1.336.763"/>
        <path d="M17.142 20.83c.614.006 2.478.01 3.063.003a.177.177 0 0 0-.004-.094.495.495 0 0 1 .029-.472.16.16 0 0 0 .009-.137.499.499 0 0 1 .04-.446.16.16 0 0 0 .007-.14c-.134-.194-.13-.476.032-.648.483-.518 1.643-2.376 1.643-3.896 0-1.719-1.474-3.117-3.286-3.117-1.813 0-3.29 1.398-3.29 3.117 0 1.286 1.175 3.382 1.65 3.887a.5.5 0 0 1 .04.64c-.034.064-.03.116-.004.157a.505.505 0 0 1 .039.45.149.149 0 0 0 .007.132.507.507 0 0 1 .029.475.157.157 0 0 0-.004.088m1.586 1.008c-.98 0-1.978-.03-2.073-.092-.393-.24-.585-.72-.495-1.178a1.156 1.156 0 0 1-.045-.575 1.166 1.166 0 0 1-.026-.687c-.633-.849-1.703-2.846-1.703-4.305 0-2.27 1.924-4.117 4.289-4.117 2.363 0 4.286 1.846 4.286 4.117 0 1.701-1.09 3.537-1.698 4.322.057.226.046.46-.03.673.033.191.017.39-.045.571.09.458-.105.94-.506 1.185-.091.057-1.014.086-1.954.086"/>
        <path d="M17.774 19.732a.5.5 0 0 1-.497-.453l-.397-4.184a.499.499 0 0 1 .749-.48c.416.243 1.234.565 2.072.034a.498.498 0 0 1 .763.48l-.501 4.158a.49.49 0 0 1-.555.436.5.5 0 0 1-.437-.555l.398-3.304a2.833 2.833 0 0 1-1.414-.037l.318 3.358a.501.501 0 0 1-.451.545l-.048.002M18.763 22.412c-.541 0-1.014-.268-1.329-.754a.5.5 0 0 1 .838-.545c.258.397.727.396.985-.005a.502.502 0 0 1 .842.541c-.313.485-.799.763-1.336.763"/>
        <path d="M20.746 19.73h-4.074a.5.5 0 1 1 0-1h4.074a.5.5 0 0 1 0 1M7.844 22.412c-.54 0-1.014-.268-1.329-.754a.5.5 0 0 1 .838-.545c.258.397.727.396.984-.005a.5.5 0 0 1 .842.541c-.316.492-.79.763-1.335.763"/>
        <path d="M6.314 20.83c.615.006 2.48.01 3.063.003a.164.164 0 0 0-.007-.102.503.503 0 0 1 .033-.466.152.152 0 0 0 .009-.132.499.499 0 0 1 .04-.449.16.16 0 0 0 .006-.14c-.134-.194-.13-.476.032-.648.483-.519 1.644-2.377 1.644-3.896 0-1.719-1.474-3.117-3.287-3.117S4.557 13.281 4.557 15c0 1.286 1.175 3.382 1.65 3.887a.5.5 0 0 1 .04.64c-.033.064-.03.116-.004.157a.505.505 0 0 1 .039.45.147.147 0 0 0 .008.133c.048.08.075.171.075.264a.51.51 0 0 1-.046.21.16.16 0 0 0-.005.088m1.584 1.008c-.98 0-1.976-.03-2.071-.092-.392-.24-.584-.72-.494-1.178a1.133 1.133 0 0 1-.045-.575 1.155 1.155 0 0 1-.027-.686C4.628 18.457 3.558 16.46 3.558 15c0-2.27 1.924-4.117 4.289-4.117 2.364 0 4.287 1.846 4.287 4.117 0 1.7-1.091 3.537-1.7 4.322.058.225.047.458-.028.672.033.192.017.39-.046.573.09.457-.104.937-.504 1.184-.092.057-1.017.086-1.958.086"/>
        <path d="M6.946 19.732a.5.5 0 0 1-.497-.453l-.397-4.184a.499.499 0 0 1 .749-.48c.415.24 1.233.564 2.073.034a.498.498 0 0 1 .763.48l-.502 4.158c-.032.275-.296.479-.555.436a.5.5 0 0 1-.437-.555l.399-3.304a2.861 2.861 0 0 1-1.415-.037l.318 3.358a.501.501 0 0 1-.451.545l-.048.002M7.936 22.412c-.541 0-1.013-.268-1.33-.753a.501.501 0 0 1 .838-.547c.26.4.727.397.985-.004a.5.5 0 0 1 .842.541c-.316.492-.791.763-1.335.763"/>
        <path d="M9.918 19.73H5.844a.5.5 0 1 1 0-1h4.074a.5.5 0 0 1 0 1M29.591 22.412c-.54 0-1.014-.268-1.329-.754a.5.5 0 0 1 .838-.545c.258.397.727.396.984-.005a.5.5 0 0 1 .842.541c-.316.492-.79.763-1.335.763"/>
        <path d="M27.97 20.83c.614.006 2.477.01 3.063.003a.172.172 0 0 0-.008-.102.503.503 0 0 1 .033-.466.152.152 0 0 0 .009-.132.499.499 0 0 1 .04-.449.156.156 0 0 0 .007-.14c-.128-.194-.126-.478.031-.648.484-.519 1.644-2.379 1.644-3.896 0-1.719-1.474-3.117-3.287-3.117S26.213 13.281 26.213 15c0 1.286 1.174 3.382 1.65 3.887a.5.5 0 0 1 .039.64c-.033.065-.029.117-.003.16.082.133.095.3.038.446a.147.147 0 0 0 .008.134.514.514 0 0 1 .033.465.157.157 0 0 0-.008.097m1.586 1.008c-.981 0-1.979-.03-2.074-.092-.392-.24-.584-.72-.494-1.177a1.14 1.14 0 0 1-.045-.577 1.168 1.168 0 0 1-.027-.685c-.632-.848-1.703-2.847-1.703-4.306 0-2.27 1.924-4.117 4.289-4.117 2.364 0 4.287 1.846 4.287 4.117 0 1.7-1.09 3.536-1.698 4.322.057.225.046.458-.03.672.033.192.017.39-.046.572.091.458-.104.94-.505 1.185-.091.057-1.014.086-1.954.086"/>
        <path d="M28.6 19.732a.5.5 0 0 1-.496-.453l-.396-4.184a.499.499 0 0 1 .749-.48c.415.243 1.235.565 2.072.034a.498.498 0 0 1 .763.48l-.501 4.158a.49.49 0 0 1-.555.436.5.5 0 0 1-.437-.555l.398-3.304a2.833 2.833 0 0 1-1.414-.037l.317 3.358a.501.501 0 0 1-.451.545l-.048.002"/>
        <path d="M31.575 19.73H27.5a.5.5 0 1 1 0-1h4.075a.5.5 0 0 1 0 1"/>
    </g>
</svg>
