<svg xmlns="http://www.w3.org/2000/svg" xmlns:xlink="http://www.w3.org/1999/xlink" width="41" height="42" viewBox="0 0 41 42">
    <defs>
        <path id="a" d="M.507.548h2.167v2.165H.507z"/>
    </defs>
    <g fill="none" fill-rule="evenodd">
        <path fill="#A9884E" d="M20.913 24.948a.542.542 0 0 0-.541.542v11.823c0 2.251-1.27 3.291-2.527 3.32-.925.036-2.08-.573-2.145-1.942-.015-.299-.255-.51-.567-.518a.545.545 0 0 0-.516.568c.093 1.948 1.692 2.975 3.179 2.975h.075c1.727-.041 3.584-1.437 3.584-4.403V25.49a.542.542 0 0 0-.542-.542"/>
        <g transform="translate(20 -.38)">
            <mask id="b" fill="#fff">
                <use xlink:href="#a"/>
            </mask>
            <path fill="#A9884E" d="M1.049 2.397a.542.542 0 0 0 .541-.542v-.767A.543.543 0 0 0 1.05.547a.543.543 0 0 0-.542.541v.767c0 .3.243.542.542.542" mask="url(#b)"/>
        </g>
        <path fill="#A9884E" d="M35.37 20.033c-1.942 0-3.792 1-4.865 2.127-1.068-1.126-2.918-2.127-4.864-2.127-1.885 0-3.757 1.016-4.864 2.15-1.11-1.134-2.98-2.15-4.865-2.15-1.95 0-3.798 1-4.868 2.127-1.072-1.126-2.923-2.127-4.862-2.127-1.584 0-3.148.708-4.262 1.601.789-9.642 9.126-17.541 18.857-17.541 9.728 0 18.067 7.897 18.854 17.539-1.114-.893-2.678-1.6-4.262-1.6M20.777 3.01C10.004 3.01.843 12.166.774 23.003a.546.546 0 0 0 .368.518.537.537 0 0 0 .607-.188c.806-1.075 2.635-2.217 4.433-2.217 1.855 0 3.664 1.136 4.422 2.206a.542.542 0 0 0 .442.227h.002a.541.541 0 0 0 .442-.23c.752-1.067 2.557-2.203 4.422-2.203 1.788 0 3.617 1.142 4.431 2.219.204.266.661.266.865 0 .815-1.077 2.645-2.219 4.433-2.219 1.861 0 3.668 1.136 4.422 2.206a.542.542 0 0 0 .884 0c.758-1.07 2.567-2.206 4.422-2.206 1.8 0 3.627 1.142 4.431 2.215a.539.539 0 0 0 .607.19.543.543 0 0 0 .368-.518C40.708 12.166 31.547 3.01 20.777 3.01"/>
    </g>
</svg>
