<svg xmlns="http://www.w3.org/2000/svg" width="49" height="42" viewBox="0 0 49 42">
    <g fill="#A9884E" fill-rule="evenodd">
        <path d="M20.637 35.918l-19.535.01c.661-8.06 18.694-8.781 19.479-8.81l.047-.001h.002c.022.002.044.004.063.004.787.026 18.82.724 19.479 8.808l-19.535-.011zm2.934 1.395c-.711 1.915-1.073 2.892-3.099 2.892h-.084c-2.095-.028-2.399-.914-3.062-2.862l-.119-.34 3.43-.002 3.053.002c-.04.102-.083.21-.12.31zm-2.778-11.275c-.026-.005-.054-.005-.085-.005h-.145a.77.77 0 0 0-.1.007C18.008 26.13-.12 27.11.003 36.477a.542.542 0 0 0 .541.535l15.516-.009c.084.236.167.472.242.691.679 1.987 1.214 3.558 4.074 3.595h.09c2.787 0 3.407-1.67 4.122-3.601.082-.219.169-.45.26-.685l15.884.009a.542.542 0 0 0 .541-.535c.122-9.36-18.085-10.35-20.48-10.44zM25.34 1.64c-.101.605-.407 1.597-1.317 2.266-.856.631-.999 1.526-1.127 2.317-.143.894-.26 1.419-1.076 1.768-.063.039-.297.127-.89.134a.442.442 0 0 0-.075-.007c-.03 0-.067 0-.088.005-.013-.002-.026-.002-.04-.002-.634-.009-.849-.113-1.005-.208-.715-.319-.819-.843-.938-1.742-.106-.793-.227-1.693-1.068-2.345-.884-.689-1.168-1.614-1.257-2.188l8.881.002zm-8.287 3.04c.487.381.568.964.659 1.634.119.894.268 2.008 1.477 2.535.24.17.61.255 1.06.303l-.011 15.112a.54.54 0 1 0 1.083 0l.011-15.086c.45-.033.81-.104.995-.236 1.32-.546 1.497-1.658 1.638-2.548.108-.67.201-1.248.7-1.617 1.828-1.345 1.813-3.592 1.81-3.687a.54.54 0 0 0-.54-.533L15.878.555a.541.541 0 0 0-.542.515c-.004.091-.078 2.217 1.716 3.61zM44.606 26.495l-5.09-.008a.542.542 0 0 0 0 1.083l5.09.009a.54.54 0 1 0 0-1.084M39.515 2.163l5.09.01h.001a.541.541 0 0 0 .003-1.083l-5.09-.01h-.002a.54.54 0 1 0-.002 1.083M47.675 18.762s-.994.923-1.98 1.207l.145-11.403c.977.345 1.948 1.41 1.948 1.41a.5.5 0 0 0 .609.01c.17-.137.175-.358.008-.501l-3.035-6.17-3.198 6.09a.315.315 0 0 0-.13.249.311.311 0 0 0 .123.249c.165.14.44.145.61.009 0 0 .996-1.038 1.982-1.359l-.146 11.403c-.979-.307-1.95-1.259-1.95-1.259a.504.504 0 0 0-.608-.008c-.174.136-.176.357-.007.5l3.033 6.17 3.198-6.09a.312.312 0 0 0 .13-.247.315.315 0 0 0-.123-.25.5.5 0 0 0-.609-.01"/>
    </g>
</svg>
