<svg xmlns="http://www.w3.org/2000/svg" width="40" height="38" viewBox="0 0 40 38">
    <g fill="#A9884E" fill-rule="evenodd">
        <path d="M19.511 10.458c2.764 0 6.717.564 9.334 1.162l-.575-4.219c-.055-.547-.684-5.19-6.568-5.19a.5.5 0 0 1-.499-.478c-.01-.224-.279-.656-.621-.656h-1.774c-.325 0-.662.422-.674.667a.5.5 0 0 1-.499.477c-5.973 0-6.49 4.65-6.529 5.178l-.548 4.141c2.576-.69 5.79-1.082 8.953-1.082zm9.929 2.32a.526.526 0 0 1-.124-.015c-2.502-.642-6.853-1.305-9.805-1.305-3.369 0-6.787.453-9.378 1.244a.501.501 0 0 1-.644-.452l-.005-.139c0-.026.008-.144.013-.17l.614-4.64c.015-.22.511-5.86 7.131-6.074.24-.6.852-1.15 1.566-1.15h1.774c.704 0 1.291.538 1.519 1.141 6.508.22 7.138 5.824 7.162 6.067l.672 4.926a.499.499 0 0 1-.495.567zm-15 8.718c1.045 1.747 2.745 3.487 5.258 3.487 2.314 0 4.132-1.583 5.353-3.27a.475.475 0 0 1 .065-.093c.908-1.28 1.471-2.608 1.648-3.34l.055-.217c.221-.864.357-1.436.439-1.815-.57.128-1.172.032-1.767-.28-2.025-1.065-9.402-1.064-11.608.003-.576.28-1.059.276-1.487.174.158.513.402 1.184.52 1.508.123.337.209.588.223.654.114.59.518 1.861 1.27 3.136l.002.003a.47.47 0 0 1 .029.05zm-1.463 3.463v6.634c0 .156.302.397.496.397h12.561c.253 0 .432-.467.432-.615v-6.554l-.071-.03c-.655-.283-1.112-.868-1.333-1.495-1.333 1.484-3.133 2.687-5.364 2.687-2.278 0-3.973-1.165-5.177-2.613l-.015.05a2.271 2.271 0 0 1-1.384 1.481c-.048.02-.096.04-.145.058zm-3.526 1.53c-3.194 1.5-5.665 2.99-6.335 3.743-.606.592-1.607 3.92-2.113 6.518a.147.147 0 0 0 .03.123c.027.031.07.052.113.052H6.28v-1.3c0-.22.108-1.122.64-1.523.303-.23.649-.45.984-.663.482-.305.981-.62 1.159-.864.196-.268.388-.986.388-1.45v-4.637zM7.28 36.924h24.832v-1.3c-.002-.175-.12-.632-.245-.727a14.344 14.344 0 0 0-.917-.615c-.585-.372-1.138-.722-1.428-1.117-.36-.49-.582-1.44-.582-2.04V26.01a55.435 55.435 0 0 0-1.474-.732v6.096c0 .58-.478 1.615-1.432 1.615H13.473c-.678 0-1.496-.623-1.496-1.397v-6.226c-.52.218-1.03.44-1.527.662l.001.033v5.063c0 .6-.222 1.551-.582 2.041-.289.396-.843.746-1.429 1.118-.313.198-.635.402-.916.614-.125.095-.242.552-.244.728v1.3zm25.832 0h5.137a.29.29 0 0 0 .152-.049c-.003-.002.004-.038-.007-.117-.377-2.73-1.38-5.88-2.065-6.484-.496-.435-3.526-2.227-6.389-3.744v4.594c0 .464.192 1.182.388 1.45.178.242.676.558 1.158.863.336.213.682.434.985.664.532.401.641 1.303.641 1.523v1.3zm5.137 1H1.146A1.146 1.146 0 0 1 .022 36.56c.294-1.507 1.36-6.032 2.372-7.017 1.121-1.263 5.682-3.72 10.361-5.57.36-.143.603-.373.744-.705.201-.474.136-1.017.08-1.234-.813-1.358-1.265-2.735-1.42-3.525-.021-.076-.091-.266-.182-.513-.794-2.178-.876-2.616-.55-2.93a.614.614 0 0 1 .598-.107c.56.231.892.37 1.424.112 2.492-1.206 10.208-1.198 12.507.012.584.306 1.097.297 1.615-.033a.541.541 0 0 1 .585.014c.316.23.391.285-.369 3.25l-.05.2c-.203.837-.812 2.287-1.804 3.688-.107.43.158 1.37.858 1.671 3.17 1.366 9.315 4.877 10.199 5.652 1.098.967 2.078 4.807 2.394 7.098.051.371-.025.677-.227.91-.213.242-.56.393-.908.393z"/>
        <path d="M11.835 15.921c-.275 0-1.669-.176-2.338-3.602a.5.5 0 1 1 .982-.191c.512 2.627 1.382 2.793 1.391 2.795.277 0 .483.223.483.498a.514.514 0 0 1-.517.5zM27.838 15.97a.5.5 0 0 1-.097-.99c-.007 0 .88-.317 1.202-2.767a.5.5 0 0 1 .993.13c-.425 3.213-1.839 3.586-1.999 3.618a.475.475 0 0 1-.099.01M19.652 9.697a.492.492 0 0 1-.295-.097L17.38 8.152a.496.496 0 0 1-.197-.31l-.241-1.27A.5.5 0 0 1 17 6.229l2.218-3.817a.5.5 0 1 1 .866.502L17.96 6.569l.169.894 1.818 1.33a.498.498 0 0 1-.295.904"/>
        <path d="M19.714 8.113a.497.497 0 0 1-.259-.072l-.903-.546a.501.501 0 0 1-.234-.341l-.098-.556a.493.493 0 0 1 .062-.343l.94-1.577a.497.497 0 0 1 .685-.173.498.498 0 0 1 .174.684l-.845 1.417.028.15.71.428a.501.501 0 0 1-.26.929"/>
        <path d="M19.714 9.697a.5.5 0 0 1-.292-.906l1.85-1.33.17-.89-2.159-3.655a.5.5 0 0 1 .862-.508l2.253 3.818a.503.503 0 0 1 .06.348l-.24 1.269a.508.508 0 0 1-.2.313l-2.012 1.446a.493.493 0 0 1-.292.095"/>
        <path d="M19.714 8.113a.5.5 0 0 1-.265-.924l.686-.43.025-.14-.926-1.41a.498.498 0 1 1 .835-.549l1.036 1.577c.07.106.096.234.074.36l-.098.556a.496.496 0 0 1-.227.338l-.875.546a.493.493 0 0 1-.265.075"/>
    </g>
</svg>
