<svg xmlns="http://www.w3.org/2000/svg" width="51" height="43" viewBox="0 0 51 43">
    <g fill="#A9884E" fill-rule="evenodd">
        <path d="M24.134 37.312c-.71 1.917-1.072 2.892-3.1 2.892h-.085c-2.095-.028-2.396-.914-3.061-2.86l-.12-.342L21.2 37l3.051.002c-.037.102-.08.21-.117.31zM21.142 27.12c.017 0 .032-.002.05-.004h.002c.02.004.041.006.063.006.784.026 18.817.724 19.476 8.805l-19.533-.01-19.534.01c.66-8.057 18.694-8.779 19.476-8.807zm20.152 9.89a.542.542 0 0 0 .542-.534c.121-9.36-18.088-10.348-20.48-10.437a.555.555 0 0 0-.084-.007h-.147c-.033 0-.065.005-.1.009C18.57 26.13.442 27.109.563 36.476a.542.542 0 0 0 .542.535l15.517-.007c.085.236.167.47.243.691.676 1.987 1.211 3.556 4.071 3.593h.091c2.789 0 3.408-1.67 4.123-3.6.08-.218.17-.45.26-.686l15.884.009zM25.903 1.64c-.102.605-.407 1.597-1.317 2.266-.856.631-1 1.526-1.127 2.317-.143.894-.26 1.419-1.077 1.768-.063.039-.305.127-.89.134a.442.442 0 0 0-.074-.007c-.03 0-.065 0-.089.005-.013-.002-.026-.002-.039-.002-.635-.009-.85-.113-1.005-.208-.715-.319-.82-.843-.938-1.742-.107-.793-.228-1.693-1.069-2.345-.884-.689-1.167-1.614-1.256-2.188l8.881.002zm-8.288 3.04c.488.381.568.964.66 1.634.118.894.268 2.008 1.477 2.535.24.17.609.255 1.06.303L20.8 24.264a.54.54 0 1 0 1.084 0l.01-15.086c.451-.033.811-.104.995-.236 1.32-.546 1.497-1.658 1.638-2.548.108-.67.202-1.248.7-1.617 1.829-1.345 1.813-3.592 1.811-3.687a.54.54 0 0 0-.541-.533L16.44.555a.541.541 0 0 0-.542.515c-.004.091-.078 2.217 1.716 3.61zM49.505 33.614s-.984.937-1.968 1.233V8.275c.984.332 1.968 1.387 1.968 1.387a.504.504 0 0 0 .609 0c.169-.139.169-.36 0-.5L47 3.03l-3.12 6.132a.318.318 0 0 0-.126.25c0 .092.042.178.126.25a.507.507 0 0 0 .611 0s.982-1.05 1.963-1.385v26.57c-.981-.294-1.963-1.233-1.963-1.233a.507.507 0 0 0-.611 0c-.169.137-.169.36 0 .499l3.116 6.132 3.118-6.132a.32.32 0 0 0 .127-.25.322.322 0 0 0-.127-.248.504.504 0 0 0-.61 0M46.383 41.662l-5.09-.009a.542.542 0 0 0 0 1.084l5.09.008a.54.54 0 1 0 0-1.083M41.292 2.163l5.09.01h.001a.541.541 0 0 0 .003-1.083l-5.09-.01h-.002a.54.54 0 1 0-.002 1.083"/>
    </g>
</svg>
