<svg xmlns="http://www.w3.org/2000/svg" width="37" height="36" viewBox="0 0 37 36">
    <g fill="#A9884E" fill-rule="evenodd">
        <path d="M25.358 1.076c-3.36 0-5.497 4.29-6.2 5.956.97-.009 2.888-.105 5.339-.615 2.06-.43 3.582-2.329 3.513-3.676-.058-1.17-1.247-1.54-2.233-1.643a3.976 3.976 0 0 0-.42-.022m-6.335 6.958c-.378 0-.595-.012-.624-.014a.501.501 0 0 1-.385-.22.5.5 0 0 1-.056-.44C18.065 7.041 20.7-.452 25.88.104c2.72.284 3.095 1.904 3.129 2.587.102 2.007-1.912 4.205-4.31 4.704-2.67.557-4.706.64-5.677.64"/>
        <path d="M12.36 6.417C10.3 5.987 8.78 4.088 8.848 2.741c.059-1.17 1.247-1.539 2.234-1.643.14-.014.28-.022.418-.022 3.355 0 5.497 4.291 6.2 5.957-.968-.009-2.882-.104-5.338-.616m22.729.661H18.798c-.524-1.384-3.114-7.48-7.821-6.974-2.72.284-3.095 1.904-3.13 2.587-.086 1.722 1.388 3.578 3.322 4.387H2.344c-.957 0-1.736.78-1.736 1.736v7.531a.5.5 0 0 0 .5.5h.61v16.141c0 1.204.98 2.183 2.183 2.183h13.092c-.163-.29-.17-.669-.17-.669v-.33H3.902c-.652 0-1.183-.53-1.183-1.184v-16.14h14.106v-1H1.608V8.813c0-.406.33-.736.736-.736h14.48v-.5h3.25v.5H35.09c.407 0 .737.33.737.736v7.031H20.074v1h14.643v16.141c0 .653-.531 1.183-1.183 1.183h-13.46v.331s0 .38-.155.67h13.615a2.185 2.185 0 0 0 2.183-2.184v-16.14h.61a.5.5 0 0 0 .5-.5V8.813c0-.957-.78-1.736-1.737-1.736"/>
        <path d="M17.323 8.078V34.5c.005.164.08.496.188.496h1.896c.024 0 .029-.003.037-.01.087-.088.13-.36.13-.482V8.078h-2.25zm2.084 27.917H17.51c-.802 0-1.177-.77-1.188-1.489V7.078h4.25V34.5c.002.124-.015.782-.42 1.19a1.026 1.026 0 0 1-.746.306zM28.187 32.403a.492.492 0 0 1-.295-.097l-3.788-2.774a.49.49 0 0 1-.196-.31l-.463-2.433a.498.498 0 0 1 .058-.344l4.25-7.316a.5.5 0 1 1 .867.502l-4.158 7.155.39 2.055 3.63 2.659a.498.498 0 0 1-.295.903"/>
        <path d="M28.312 29.767a.497.497 0 0 1-.26-.072l-2-1.208a.496.496 0 0 1-.233-.341l-.217-1.231a.496.496 0 0 1 .063-.343l2.079-3.492a.5.5 0 0 1 .859.512l-1.984 3.332.145.824 1.807 1.09a.5.5 0 0 1-.26.929"/>
        <path d="M28.308 32.403a.5.5 0 0 1-.292-.906l3.69-2.657.392-2.052-4.221-7.154a.5.5 0 1 1 .862-.508l4.316 7.316a.502.502 0 0 1 .06.348l-.462 2.431a.505.505 0 0 1-.2.314L28.6 32.309a.5.5 0 0 1-.292.094"/>
        <path d="M28.312 29.767a.5.5 0 0 1-.265-.924l1.748-1.09.145-.817-2.185-3.326a.5.5 0 0 1 .836-.55l2.293 3.494a.489.489 0 0 1 .074.36l-.216 1.232a.501.501 0 0 1-.228.337l-1.937 1.208a.493.493 0 0 1-.265.076"/>
        <path d="M28.287 27.836a.497.497 0 0 1-.259-.072l-.475-.288a.503.503 0 0 1-.234-.341l-.052-.293a.495.495 0 0 1 .063-.342l.494-.831a.499.499 0 1 1 .859.511l-.354.597.217.13a.501.501 0 0 1-.259.929"/>
        <path d="M28.287 27.836a.5.5 0 0 1-.265-.924l.201-.125-.387-.588a.501.501 0 0 1 .836-.55l.546.832a.5.5 0 0 1 .074.36l-.052.294a.498.498 0 0 1-.227.338l-.46.287a.493.493 0 0 1-.266.076"/>
    </g>
</svg>
