<svg xmlns="http://www.w3.org/2000/svg" width="42" height="39" viewBox="0 0 42 39">
    <g fill="#A9884E" fill-rule="evenodd">
        <path d="M36.529 17.84c.11.084.197.203.242.34a.412.412 0 0 1 .031-.092.767.767 0 0 0 .036-.501c-.034-.132-.075-.257-.115-.381a5.871 5.871 0 0 1-.15-.506.494.494 0 0 1-.178.175l-.013.024c.064.207.08.41.096.585.012.136.024.261.051.356zm2.033 1.333c.1.048.192.117.275.208.079.033.185.09.286.194l.022.021c-.201-.445-.393-.976-.323-1.243a.623.623 0 0 1 .032-.122c-.223-.224-.386-.408-.466-.604a5.82 5.82 0 0 1-.18-.233.455.455 0 0 1-.065-.015 1.308 1.308 0 0 1-.28-.152l.023.086a1.834 1.834 0 0 1 .04.765.542.542 0 0 1 .124.514v.002c.107.194.286.364.475.542l.037.037zm-19.544 9.611c.134.044.28.112.414.2l.002-.002c.1-.04.302-.124.384-.178a.546.546 0 0 1 .274-.216l.119-.043c.22-.08.466-.17.747-.2.286-.056.827.208.833.212.147.067.265.169.358.275.03-.002.058-.006.089-.007a.752.752 0 0 1 .037-.463c.06-.122.106-.189.151-.254.024-.035.057-.08.063-.097.108-.266.425-.443.692-.351.11.038.226.06.34.082.285.056.607.121.91.335.202.115.289.32.332.464.243-.123.567-.238.926-.19.317.047.538.202.715.327.091.064.185.131.244.142.117.028.324-.058.456-.113l.16-.067c.096-.04.194-.078.283-.133.157-.149 1.091-.426 1.66-.505l.026-.028.096-.11.001-.015c-.025-.193 0-.446.077-.733-.151-.099-.232-.285-.232-.483 0-.446.767-1.13.948-1.239a.543.543 0 0 1 .16-.065c.01 0 .862-.192 1.225-.05.264.122.429.284.56.416.224.22.376.39.526.562.094.105.187.21.282.312l.05-.02.142-.054a.482.482 0 0 1 .219-.03c.136.01.247.052.321.079.215.046.333.125.59.331.136-.3.37-.549.667-.69a.538.538 0 0 1 .752.335c.165.102.205.206.198.399-.016.482.102.968.232 1.422.008.023.01.047.015.07.012-.27.03-.541.05-.813.047-.668.09-1.3.024-1.925-.011-.076-.04-.293-.085-.34a.525.525 0 0 1-.252-.31.288.288 0 0 1-.032-.048 4.393 4.393 0 0 1-.342-.947.628.628 0 0 1-.165-.19.628.628 0 0 1-.09-.13.268.268 0 0 1-.019-.033c-.056.005-.139.02-.224.035a4.151 4.151 0 0 1-.192.031c-.391.24-1.072.468-1.34.438a.542.542 0 0 1-.455-.672c.052-.207.11-.414.167-.62l.115-.42c-.021-.01-.029-.057-.032-.105-.031-.312.02-.65.16-1.015a5.264 5.264 0 0 0-.012-.18c-.018-.201-.037-.429.008-.677.035-.167.113-.275.15-.327.14-.189.436-.437 1.046-.924.13-.104.242-.192.308-.248.146-.198.44-.437.733-.601-.137-.281-.162-.57-.184-.81-.017-.194-.031-.36-.094-.462a.54.54 0 0 1 .078-.669.517.517 0 0 0 .105-.188.563.563 0 0 1 .312-.347.457.457 0 0 1 .044-.046.709.709 0 0 0 .04-.175.548.548 0 0 1-.04-.399c.07-.242.3-.52.602-.581a.633.633 0 0 1 .58.205c.093.149.18.23.28.325l.031.029c.023-.124.051-.268.086-.437.027-.126.049-.233.057-.293a.542.542 0 0 1 .242-.377c.005-.01.01-.021.017-.032a3.276 3.276 0 0 0-.17-.423.537.537 0 0 1-.082-.59c.026-.121.055-.356.084-.575l.037-.267a.99.99 0 0 1-.154-.018c-.228.03-.487-.037-.641-.243a.583.583 0 0 1-.094-.416 1.656 1.656 0 0 0-.088-.191l-.043-.088a.582.582 0 0 1-.126-.25c-.033-.149-.04-.412.081-.618a.971.971 0 0 1 .17-.24c-.075.034-.146.057-.197.073-.14.045-.351.11-.495.181-.056.03-.11.074-.155.109-.04.029-.1.074-.172.114a5.148 5.148 0 0 0-.198.178c-.174.16-.35.316-.549.443a.953.953 0 0 1-.162.088c-.028.07-.056.14-.073.19a.54.54 0 0 1-.202.35c-.048.037-.092.074-.136.107v.177c0 .09-.003.178.005.234a.49.49 0 0 1-.066.387c-.186.307-1.138.995-1.643 1.07a.767.767 0 0 1-.21.005.183.183 0 0 0-.05.025c-.033.033-.07.119-.105.202-.048.112-.107.25-.201.385a.535.535 0 0 1-.105.11c-.241.193-.542.153-1.138.076-.082-.01-.16-.02-.225-.03-.165.129-.407.316-.64.49a.54.54 0 0 1-.072.776.821.821 0 0 1-.163.102.544.544 0 0 1-.378.235l-.017.002a.542.542 0 0 1-.506.356c-.05-.004-.131-.005-.188-.013-.298.22-.787.291-1.125.148a.614.614 0 0 1-.462.087.533.533 0 0 1-.21-.096c-.031.005-.065.01-.098.008-.08-.001-.154.004-.23.01-.213.015-.456.032-.716-.036a.534.534 0 0 1-.337-.194 5.911 5.911 0 0 0-.406.068l-.008.003a.21.21 0 0 1-.021.005.541.541 0 0 1-.275.304.515.515 0 0 1-.125.09 2.04 2.04 0 0 1-.27.113.888.888 0 0 0-.146.06.563.563 0 0 1-.648.026.53.53 0 0 1-.226-.588c.029-.1.061-.199.106-.294a.54.54 0 0 1 .187-.225c.215-.238.396-.51.61-.84l.06-.107c-.006.008-.019-.004-.033-.032a3.546 3.546 0 0 1-.779-.33c-.1.148-.195.276-.294.376-.168.321-.648.568-.966.57h-.002a.545.545 0 0 1-.182-.032l-.702.494-.093.065c-.184.28-.649.426-.97.497a.54.54 0 0 1-.238.162c-.206.168-.569.32-1.215.555a.622.622 0 0 1-.47.36c-.083.01-.453.038-.653-.391a.623.623 0 0 1-.045.077c.009.022-.02.243-.046.41.116.2.1.46-.057.637-.139.162-.219.25-.308.33a.542.542 0 0 1-.899-.335c-.025-.203-.122-.416-.304-.663l-.032.02c-.147.083-.406.12-.628.088a.776.776 0 0 1-.393-.156l-.046-.03a.546.546 0 0 1-.25-.09.535.535 0 0 0-.261-.067.725.725 0 0 1-.523-.335l-.023-.049c-.138-.056-.325-.115-.406-.117-.101.014-.192 0-.278-.036-.169.072-.397.13-.71.21-.141.035-.268.064-.332.088a.456.456 0 0 1-.378.066.402.402 0 0 1-.226-.14 9.529 9.529 0 0 0-1.22-.316.547.547 0 0 1-.2-.027c-.254-.087-.572-.474-.647-.65-.091-.35.061-1.084.386-1.315l.117-.08c.03-.021.064-.04.09-.066a.68.68 0 0 1 .496-.317c.388-.024.63.264.822.564a1.7 1.7 0 0 0 .223.018c0-.053.002-.105.004-.158.007-.244.012-.476-.026-.684-.006 0-.052-.072-.1-.148a2.329 2.329 0 0 1-.2-.372l-.048-.043a.636.636 0 0 0-.163.073l-.024-.017c-.319.495-1.116 1.157-1.588 1.509a1.511 1.511 0 0 1-.197.47.581.581 0 0 1-.102.117c-.226.194-.489.217-.647.23-.292.014-1.206.22-1.695.33-.267.06-.485.108-.588.128-.047.083-.106.17-.169.262-.048.07-.101.145-.14.21-.046.376-.188 1.171-.312 1.463-.092.216-.296.382-.618.634-.033.024-.065.05-.095.073.017.211.06.839-.019 1.308.135.245.216.421.265.551.24.211.315.517.353.668a.541.541 0 0 1-.001.266c-.102.395-.402.597-.6.73-.048.033-.097.063-.138.1-.438.428-.838.142-.883.108a.567.567 0 0 1-.104-.106c-.22.083-.498.17-.753.229l.02.187.046.375c.018.13.035.262.047.393.35.385.644 1.013.78 1.331.202.103.327.204.413.285.003-.05.014-.1.032-.148.113-.312.391-.445.483-.49.19-.084.582-.12.914-.063a.09.09 0 0 1 .013-.008 6.428 6.428 0 0 0-.073-.38 2.403 2.403 0 0 1-.077-.432l-.017-.136a.54.54 0 0 1 .446-.614l.106-.018a.542.542 0 0 1 .168-.164c.247-.152.562-.157.829-.082a.544.544 0 0 1 .532-.093l.235.086c.18.052 1.577.483 1.767 1.024.039.112.05.217.046.31.195.075.428.183.603.321.077.037.17.094.308.185a.584.584 0 0 1 .17-.238.532.532 0 0 1 .307-.12c.027-.012.062-.03.095-.05.022-.341.284-.51.373-.566a.533.533 0 0 1 .647-.054l.389.24a1.18 1.18 0 0 1 .197-.003c.168.01.34.034.511.06.232.033.457.063.65.05.449-.042 1.036.614 1.19.885.07.026.15.058.235.091 1.024.402 1.292.508 1.371.779.139.23.269.482.394.768.114.27.226.575.263.901.094.038.194.086.297.144.162.056.872.525 1.239.906zm16.267 1.864h-.175a.54.54 0 0 1-.52-.693c.079-.27.093-.457.044-.588a.55.55 0 0 1-.28-.375.529.529 0 0 1 .11-.443.529.529 0 0 0 .074-.102.497.497 0 0 1 .303-.454c-.005-.033-.013-.067-.02-.101a.52.52 0 0 1-.078.026.964.964 0 0 0-.268.104.543.543 0 0 1-.591-.017 5.598 5.598 0 0 1-.278-.215c-.082-.066-.167-.137-.228-.181a1.606 1.606 0 0 1-.102-.034c-.158.063-.362.141-.613.12a.54.54 0 0 1-.343-.15 8.908 8.908 0 0 1-.536-.57c-.136-.153-.27-.307-.417-.45a2.943 2.943 0 0 0-.232-.217 4.484 4.484 0 0 0-.511.06c-.051.043-.116.109-.179.178.103.156.169.395.105.559-.115.291-.16.533-.14.738.01.14.036.388-.152.601a4.82 4.82 0 0 1-.221.255l-.153.173a.544.544 0 0 1-.504.184c-.15.01-1.056.257-1.241.355-.154.1-.308.167-.464.231l-.14.059c-.252.107-.663.28-1.11.18-.27-.054-.478-.199-.644-.317-.093-.065-.19-.133-.245-.14-.112-.021-.306.091-.474.195a.547.547 0 0 1-.418.065c-.21-.05-.45-.108-.651-.302a.93.93 0 0 1-.247-.453 1.36 1.36 0 0 0-.33-.103.548.548 0 0 1 .032.14c.015.15.008.302-.002.454a.552.552 0 0 1-.58.521l-.192-.016c-.212-.022-.411-.04-.535.016a.54.54 0 0 1-.692-.222c-.024-.041-.098-.167-.134-.19a1.699 1.699 0 0 0-.282-.1c-.15.026-.286.075-.426.125-.197.2-.492.32-.76.43-.061.025-.117.047-.159.067a.538.538 0 0 1-.834-.184c-.007.019-.136-.046-.196-.062-.175.013-.286-.08-.388-.239-.112-.156-.768-.626-.955-.712a2.083 2.083 0 0 0-.322-.145.539.539 0 0 1-.587-.625c.04-.254-.063-.546-.18-.823a5.408 5.408 0 0 0-.317-.62 25.055 25.055 0 0 0-.849-.346c-.555-.218-.588-.231-.684-.329a.538.538 0 0 1-.153-.317 2.11 2.11 0 0 0-.276-.251 7.084 7.084 0 0 1-.72-.066c-.143-.021-.283-.043-.426-.051a.477.477 0 0 0-.122.02.543.543 0 0 1-.408-.071l-.055-.035a1.86 1.86 0 0 1-.356.294.542.542 0 0 1-.07.66c-.107.116-.346.368-.72.318-.21-.06-.316-.128-.682-.376-.186-.126-.382-.263-.474-.309a.367.367 0 0 1-.238-.145 3.803 3.803 0 0 0-.476-.205.543.543 0 0 1-.54-.416.962.962 0 0 1 0-.418 6.921 6.921 0 0 0-.811-.357.542.542 0 0 1-.796.138l-.064-.056a.533.533 0 0 1-.181.078c.104.484.135.764.116.958a.542.542 0 0 1-.433.477l-.09.061c-.143.097-.267.181-.42.21a.547.547 0 0 1-.342-.047 1.01 1.01 0 0 0-.086-.011.645.645 0 0 1-.031.225 1.08 1.08 0 0 1-.357.47c-.013-.026-.003.077.007.2a3 3 0 0 1 .015.369.54.54 0 0 1-.447.511 3.352 3.352 0 0 1-.49.04l-.131.006a.522.522 0 0 1-.565-.478c-.01-.09-.05-.198-.094-.32-.074-.2-.165-.448-.165-.738a.51.51 0 0 1 .004-.058.76.76 0 0 1-.247-.256.488.488 0 0 1-.056-.133 17.692 17.692 0 0 0-.704-1.19.536.536 0 0 1-.18-.392c-.004-.16-.027-.318-.048-.475l-.05-.396c-.03-.272-.066-.581.01-.913a.542.542 0 0 1 .621-.41c.225-.04.804-.219.93-.279.15-.13.27-.109.455-.042l.302.11.013-.008.025-.017a.536.536 0 0 1-.183-.431c-.023.02-.132-.225-.292-.503a.542.542 0 0 1-.037-.462c.035-.21.058-.84.022-1.072a.548.548 0 0 1-.039-.525c.085-.184.243-.312.538-.542.106-.081.283-.22.327-.273.026-.087.18-.885.201-1.171a.538.538 0 0 1 .052-.196c.056-.114.163-.277.264-.423.04-.06.079-.115.105-.158a.57.57 0 0 1 .143-.238c.194-.188.407-.296.636-.323.054-.009.263-.057.526-.116.844-.19 1.515-.337 1.829-.352a.401.401 0 0 0 .006-.052.541.541 0 0 1 .396-.491c.157-.104 1.164-1.054 1.365-1.29a.542.542 0 0 1 .049-.073c.218-.274.505-.37.716-.44.058-.021.118-.04.173-.066a.54.54 0 0 1 .562.058c.055.04.107.086.16.132.046-.002.094-.002.145 0a.54.54 0 0 1 .517.553 3.76 3.76 0 0 1-.022.315l-.001.008c.057.099.117.214.159.346.075.382.066.681.058.972-.002.079-.004.16-.004.239.12.28.017.495-.068.611-.208.31-.624.355-.926.362h-.05c.105.034.203.071.293.11a26.5 26.5 0 0 1 .275-.07c.149-.037.414-.103.526-.145a.538.538 0 0 1 .536-.087.497.497 0 0 1 .47.06c.403.077.879.289 1.049.498l.015.02c.086.02.165.045.24.075a.538.538 0 0 1 .21-.49l.118-.091a.542.542 0 0 1 .736.056c.151.163.22.349.25.51.1.073.187.152.259.229a.55.55 0 0 1 .075-.22c.15-.24.326-.351.484-.399.143-.133.274-.303.41-.483l.073-.094a.544.544 0 0 1 .704-.137c.206.122.421.261.603.462.045.047.08.104.103.162.076-.032.144-.064.195-.09a.555.555 0 0 1 .165-.165c.088-.12.22-.2.374-.217.164-.02.404-.084.534-.136a.566.566 0 0 1 .138-.14l.22-.154c.894-.63 1.086-.76 1.16-.8a.55.55 0 0 1 .44-.04.555.555 0 0 1 .139-.106c.07-.084.193-.268.256-.363.072-.107.136-.204.18-.26a.54.54 0 0 1 .6-.18c.173.057.32.13.451.223a.593.593 0 0 1 .063.053c.19.094.668.281.78.312.222.007.324.137.4.346.091.245.164.438.183.659a.86.86 0 0 1-.031.306c.195-.024.386-.031.546-.003a.54.54 0 0 1 .356.235c.048-.003.132-.003.2-.007l.127-.009a.5.5 0 0 1 .102-.044.557.557 0 0 1 .455.033.542.542 0 0 1 .462-.064c.103.034.201.082.298.131l.015.006a.545.545 0 0 1 .444-.257c.043-.003.082 0 .121.002l.02-.018c.056-.045.117-.084.18-.115a.542.542 0 0 1 .287-.793c.075-.055.992-.741 1.111-.845a.614.614 0 0 1 .18-.107c.165-.06.328-.04.725.01.108.016.223.032.324.043.065-.15.148-.33.305-.492.23-.244.53-.325.735-.365a.509.509 0 0 1 .198-.002c.182-.075.533-.31.729-.47v-.136c0-.083.003-.17-.002-.235a.539.539 0 0 1 .268-.693.873.873 0 0 0 .146-.096c.02-.058.045-.122.073-.195.028-.071.057-.138.067-.18a.586.586 0 0 1 .44-.406c.229-.11.353-.228.48-.344a6.63 6.63 0 0 1 .292-.258.556.556 0 0 1 .12-.075c.148-.111.26-.195.381-.249.158-.08.403-.161.585-.22l.02-.111.035-.174a.54.54 0 0 1 .395-.4c.068-.021.135-.043.201-.06.1-.15.268-.242.45-.242h.038a.54.54 0 0 1 .448.237c.022.033.043.065.06.097.06.032.114.077.16.13.08.1.123.223.123.345.096.074.172.128.25.18a.54.54 0 0 1 .168.745c-.057.09-.132.162-.25.273-.037.034-.074.067-.097.092l-.032.14a.54.54 0 0 1-.506.357l-.02.013.012.026c.041.082.088.173.128.275.038.002.062.001.089.003.157-.01.41.099.588.292.206.225.325.553.297.814l-.053.386c-.032.233-.058.424-.087.579.172.339.269.761.27.768.056.345-.172.715-.315.878l-.029.141c-.042.203-.128.626-.127.744a.466.466 0 0 1-.05.352c.015.024.03.05.042.075.028.03.068.066.105.095a.595.595 0 0 1 .125.035l.105.044c.2.085.419.319.419.537a.457.457 0 0 0-.055-.226c.032.053.102.135.155.2.074.092.172.213.206.363.028.013.22.204.315.297.158.154.253.248.314.36a.54.54 0 0 1-.096.651l-.044.041c.083.206.385.894.478 1.036.145.166.152.394.155.505l.022.514a.541.541 0 0 1-.85.457 2.553 2.553 0 0 0-.371-.226l-.213-.1c-.243-.11-.52-.235-.762-.465a1.165 1.165 0 0 1-.287-.197.532.532 0 0 1-.176-.114l-.115-.11c-.265-.25-.566-.536-.746-.943a.763.763 0 0 1-.072-.248.525.525 0 0 1-.161-.2l-.019-.043a.746.746 0 0 1-.1.243c.027.163-.032.29-.141.411a.47.47 0 0 1-.338.14 3.08 3.08 0 0 0-.445.309.496.496 0 0 1-.075.104c-.046.05-.23.204-.464.39-.223.179-.667.533-.817.684-.004.084.006.188.016.304.011.13.02.259.018.387a.518.518 0 0 1-.043.201c-.1.236-.14.435-.123.61.024.145.049.298 0 .477a.531.531 0 0 1 .24-.072c.075-.004.15-.02.226-.032.195-.037.442-.08.712-.026.363.09.536.347.631.5.16.062.284.2.328.37.082.325.148.59.242.818a.446.446 0 0 1 .118.116c.043.062.08.133.106.205.253.294.307.68.338.913.08.737.03 1.448-.018 2.135-.023.33-.047.662-.054.993a.523.523 0 0 1-.041.19 1.446 1.446 0 0 1-.153.274c-.01.114-.096.258-.171.343-.118.138-.19.22-.27.295-.155.145-.327.213-.453.263-.013.006-.027.01-.04.014-.088.1-.204.265-.28.366a.571.571 0 0 1-.445.235z"/>
        <path d="M22.857 13.524a.611.611 0 0 1-.272-.064c-.197-.099-.429-.382-.54-.683a.843.843 0 0 1-.258-.621l.466-.008.121-.532a.54.54 0 0 1 .473.387.545.545 0 0 1 .217.41c.02.044.059.106.082.13.267.134.337.435.203.702a.54.54 0 0 1-.492.279M27.816 14.29a.54.54 0 0 1-.524-.677l.011-.073c.02-.138.055-.369.232-.57a.544.544 0 0 1 .2-.14.54.54 0 0 1 .508-.392h.013c.293 0 .534.233.541.527.008.31-.209.592-.444.757.01.057 0 .111-.013.162a.542.542 0 0 1-.524.406M15.105 16.38a.541.541 0 0 1-.43-.872c.021-.05.044-.117.066-.18.078-.23.145-.421.302-.536.085-.082.21-.185.394-.334l.089-.071a.525.525 0 0 1 .137-.083c.097-.146.277-.28.44-.295.076-.03.857-.366 1.355-.59a.541.541 0 0 1 .44-.002.682.682 0 0 1 .344.101l.065.025a.543.543 0 0 1 .454.98c-.347.199-.695.096-.916.002a.863.863 0 0 1-.082.017.525.525 0 0 1-.165 0c-.575.256-.902.39-1.096.461a.91.91 0 0 1-.407.317c-.096.076-.221.175-.29.24a8.684 8.684 0 0 1-.04.12c-.118.34-.22.635-.572.694a.613.613 0 0 1-.088.006M3.787 16.548a.543.543 0 0 1-.51-.36 1.09 1.09 0 0 0-.115-.191c-.147-.216-.368-.543-.282-.994a.54.54 0 0 1 .66-.424c.05-.012.09-.02.13-.024a.53.53 0 0 1 .58.385c.037.025.07.055.096.088.107.138.202.315.154.483.006 0 .015.034.052.106a.542.542 0 0 1-.226.723c-.156.088-.253.14-.357.177a.536.536 0 0 1-.182.031M1.218 22.908a.545.545 0 0 1-.535-.46.937.937 0 0 1 .026-.382.54.54 0 0 1 .076-.493c.103-.149.17-.238.248-.317a.542.542 0 0 1 .765 0c.034.034.112.078.186.123.225.13.565.331.682.774a.542.542 0 0 1-.593.675c-.15.006-.602.046-.726.064a.52.52 0 0 1-.129.016M38.25 25.439a.525.525 0 0 1-.215-.046c-.199-.067-.465-.158-.618-.45-.072-.138-.106-.276-.134-.387a.967.967 0 0 0-.04-.139.487.487 0 0 1-.155-.552 2.379 2.379 0 0 1-.24-.171 2.72 2.72 0 0 1-.204-.217c-.091-.106-.177-.206-.247-.233a.542.542 0 0 1-.337-.413 3.697 3.697 0 0 1-.271-.264.542.542 0 0 1-.32-.951l.097-.088a.543.543 0 0 1 .761.024l.149.161c.15.165.292.321.444.409a.545.545 0 0 1 .258.35c.113.097.204.203.286.298l.113.126c.096.072.283.165.481.263l.238.12a.843.843 0 0 1 .328.309.545.545 0 0 1-.204.795l.046.018a.54.54 0 0 1-.216 1.038M34.066 23.793a.541.541 0 0 1-.466-.265 1.054 1.054 0 0 1-.14-.468.541.541 0 0 1 .532-.584l.218-.001a.542.542 0 0 1 .542.55l-.001.196a.542.542 0 0 1-.427.53l-.149.032a.55.55 0 0 1-.109.01"/>
        <path d="M33.833 23.845a.54.54 0 0 1-.536-.47c-.022-.154.017-.372.12-.49s.243-.247.399-.247h.14a.542.542 0 0 1 .404.888c-.045.053-.09.105-.139.155a.54.54 0 0 1-.388.164M20.925 38.742a18.907 18.907 0 0 1-15.66-8.333.541.541 0 1 1 .9-.605 17.82 17.82 0 0 0 14.212 7.846c4.828.148 9.385-1.619 12.858-4.963a.542.542 0 0 1 .752.78c-3.545 3.414-8.163 5.275-13.062 5.275M4.19 11.92a.542.542 0 0 1-.494-.763A18.824 18.824 0 0 1 21.474.008 18.912 18.912 0 0 1 35.12 6.463a.543.543 0 0 1-.817.713 17.819 17.819 0 0 0-12.86-6.084C14.172.855 7.638 4.999 4.685 11.599a.542.542 0 0 1-.494.32"/>
        <path d="M34.722 7.369h-.016l-3.374-.1a.543.543 0 0 1 .032-1.084l2.833.084.084-2.832a.542.542 0 0 1 1.083.031l-.1 3.375a.546.546 0 0 1-.542.526M5.234 33.99a.54.54 0 0 1-.537-.616l.466-3.343a.547.547 0 0 1 .61-.462l3.343.465a.542.542 0 0 1-.151 1.073l-2.805-.39-.39 2.806a.542.542 0 0 1-.536.467"/>
    </g>
</svg>
