<svg xmlns="http://www.w3.org/2000/svg" width="24" height="24" viewBox="0 0 24 24">
    <g fill="none" fill-rule="evenodd">
        <path fill="#A9884E" d="M0 12C0 5.373 5.373 0 12 0s12 5.373 12 12-5.373 12-12 12S0 18.627 0 12z"/>
        <path fill="#111" d="M12.628 15.538s.23-.025.35-.15c.107-.114.104-.33.104-.33s-.015-1.007.462-1.156c.47-.146 1.072.974 1.712 1.405.483.326.85.254.85.254l1.71-.023s.894-.054.47-.744c-.035-.057-.247-.51-1.27-1.444-1.073-.976-.93-.818.362-2.508.786-1.028 1.1-1.656 1.002-1.925-.093-.257-.672-.189-.672-.189l-1.924.012s-.143-.019-.249.043c-.103.061-.17.203-.17.203s-.304.796-.71 1.473c-.858 1.428-1.2 1.504-1.34 1.415-.327-.207-.245-.83-.245-1.274 0-1.384.214-1.961-.417-2.11-.209-.05-.363-.083-.898-.088-.687-.007-1.268.002-1.597.16-.22.105-.388.34-.285.353.127.017.415.076.568.28.197.264.19.855.19.855s.114 1.63-.265 1.832c-.259.14-.614-.144-1.379-1.44-.391-.664-.687-1.398-.687-1.398s-.056-.137-.159-.21c-.123-.09-.295-.117-.295-.117l-1.829.011s-.275.008-.375.125c-.09.104-.007.32-.007.32s1.432 3.288 3.053 4.945c1.487 1.52 3.175 1.42 3.175 1.42h.765z"/>
    </g>
</svg>
