<svg xmlns="http://www.w3.org/2000/svg" xmlns:xlink="http://www.w3.org/1999/xlink" width="24" height="24" viewBox="0 0 24 24">
    <defs>
        <path id="a" d="M0 12C0 5.373 5.373 0 12 0s12 5.373 12 12-5.373 12-12 12S0 18.627 0 12z"/>
    </defs>
    <g fill="none" fill-rule="evenodd">
        <mask id="b" fill="#fff">
            <use xlink:href="#a"/>
        </mask>
        <use fill="#A9884E" xlink:href="#a"/>
        <path fill="#111" d="M12 5.6c-1.738 0-1.956.008-2.638.039-.682.03-1.147.139-1.554.297-.42.163-.778.382-1.133.738a3.142 3.142 0 0 0-.74 1.134c-.158.407-.266.872-.296 1.553-.031.683-.039.9-.039 2.64 0 1.737.008 1.955.039 2.637.031.682.139 1.147.297 1.554.164.42.382.778.738 1.133.356.356.713.576 1.133.74.408.157.873.265 1.554.296.683.032.9.04 2.639.04 1.738 0 1.956-.008 2.638-.04.682-.03 1.147-.139 1.554-.297.421-.163.778-.383 1.133-.739.356-.355.575-.712.739-1.133.157-.407.265-.872.297-1.554.031-.682.039-.9.039-2.638s-.008-1.956-.039-2.639c-.032-.681-.14-1.146-.297-1.553a3.141 3.141 0 0 0-.739-1.134 3.128 3.128 0 0 0-1.133-.738c-.408-.158-.873-.266-1.555-.297-.682-.031-.9-.039-2.638-.039H12zm-.574 1.153h.575c1.708 0 1.911.006 2.586.037.624.029.962.133 1.188.22.299.117.512.255.736.48.224.223.362.437.478.735.088.226.192.564.22 1.188.032.675.038.878.038 2.586 0 1.708-.006 1.91-.037 2.585-.029.624-.133.963-.22 1.188a1.979 1.979 0 0 1-.48.735 1.98 1.98 0 0 1-.735.479c-.225.088-.564.192-1.188.22-.675.031-.878.038-2.586.038-1.71 0-1.912-.007-2.587-.038-.624-.028-.962-.133-1.188-.22a1.982 1.982 0 0 1-.736-.479 1.984 1.984 0 0 1-.479-.736c-.088-.225-.192-.564-.22-1.188-.031-.674-.037-.877-.037-2.586 0-1.71.006-1.91.037-2.585.028-.624.132-.963.22-1.189.116-.298.255-.512.479-.736.224-.224.437-.362.736-.479.226-.088.564-.192 1.188-.22.59-.027.82-.035 2.012-.036v.001zm3.99 1.063a.768.768 0 1 0 0 1.536.768.768 0 0 0 0-1.536zm-3.415.897a3.287 3.287 0 1 0 0 6.574 3.287 3.287 0 0 0 0-6.574zm0 1.154a2.133 2.133 0 1 1 0 4.266 2.133 2.133 0 0 1 0-4.266z" mask="url(#b)"/>
    </g>
</svg>
